<?xml version="1.0" encoding="UTF-8" standalone="no"?><svg xmlns="http://www.w3.org/2000/svg" xmlns:xlink="http://www.w3.org/1999/xlink" contentScriptType="application/ecmascript" contentStyleType="text/css" height="427px" preserveAspectRatio="none" style="width:696px;height:427px;background:#FFFFFF;" version="1.1" viewBox="0 0 696 427" width="696px" zoomAndPan="magnify"><defs><filter height="300%" id="f1ttrus9h8qht" width="300%" x="-1" y="-1"><feGaussianBlur result="blurOut" stdDeviation="2.0"/><feColorMatrix in="blurOut" result="blurOut2" type="matrix" values="0 0 0 0 0 0 0 0 0 0 0 0 0 0 0 0 0 0 .4 0"/><feOffset dx="4.0" dy="4.0" in="blurOut2" result="blurOut3"/><feBlend in="SourceGraphic" in2="blurOut3" mode="normal"/></filter></defs><g><!--MD5=[0cf97551a0e0a8068cc8c0be31971d99]
class ISurveyBuilder--><rect codeLine="1" fill="#FEFECE" filter="url(#f1ttrus9h8qht)" height="136.8516" id="ISurveyBuilder" style="stroke:#A80036;stroke-width:1.5;" width="287" x="236.5" y="7"/><ellipse cx="338.75" cy="23" fill="#B4A7E5" rx="11" ry="11" style="stroke:#A80036;stroke-width:1.0;"/><path d="M339.7031,19.6406 L339.7031,26.2969 L341.4219,26.2969 Q342.0313,26.2969 342.2969,26.5313 Q342.5625,26.7656 342.5625,27.1563 Q342.5625,27.5313 342.2969,27.7656 Q342.0313,28 341.4219,28 L336.2813,28 Q335.6719,28 335.4063,27.7656 Q335.1406,27.5313 335.1406,27.1406 Q335.1406,26.7656 335.4063,26.5313 Q335.6719,26.2969 336.2813,26.2969 L338,26.2969 L338,19.6406 L336.2813,19.6406 Q335.6719,19.6406 335.4063,19.4063 Q335.1406,19.1719 335.1406,18.7813 Q335.1406,18.4063 335.4063,18.1719 Q335.6719,17.9375 336.2813,17.9375 L341.4219,17.9375 Q342.0313,17.9375 342.2969,18.1719 Q342.5625,18.4063 342.5625,18.7813 Q342.5625,19.1719 342.2969,19.4063 Q342.0313,19.6406 341.4219,19.6406 L339.7031,19.6406 Z " fill="#000000"/><text fill="#000000" font-family="sans-serif" font-size="12" font-style="italic" lengthAdjust="spacing" textLength="74" x="359.25" y="27.9102">ISurveyBuilder</text><line style="stroke:#A80036;stroke-width:1.5;" x1="237.5" x2="522.5" y1="39" y2="39"/><ellipse cx="247.5" cy="50" fill="#84BE84" rx="3" ry="3" style="stroke:#038048;stroke-width:1.0;"/><text fill="#000000" font-family="sans-serif" font-size="11" lengthAdjust="spacing" textLength="219" x="256.5" y="54.4189">options(options: Partial&lt;SurveyOptions&gt;): void;</text><ellipse cx="247.5" cy="63.8359" fill="#84BE84" rx="3" ry="3" style="stroke:#038048;stroke-width:1.0;"/><text fill="#000000" font-family="sans-serif" font-size="11" lengthAdjust="spacing" textLength="120" x="256.5" y="68.2549">survey(name: string): this;</text><ellipse cx="247.5" cy="77.6719" fill="#84BE84" rx="3" ry="3" style="stroke:#038048;stroke-width:1.0;"/><text fill="#000000" font-family="sans-serif" font-size="11" lengthAdjust="spacing" textLength="194" x="256.5" y="82.0908">participantSchema(): IParticipantSchemaBuilder;</text><ellipse cx="247.5" cy="91.5078" fill="#84BE84" rx="3" ry="3" style="stroke:#038048;stroke-width:1.0;"/><text fill="#000000" font-family="sans-serif" font-size="11" lengthAdjust="spacing" textLength="261" x="256.5" y="95.9268">visit(type: string | Record&lt;string, string&gt;): IVisitBuilder;</text><ellipse cx="247.5" cy="105.3438" fill="#84BE84" rx="3" ry="3" style="stroke:#038048;stroke-width:1.0;"/><text fill="#000000" font-family="sans-serif" font-size="11" lengthAdjust="spacing" textLength="159" x="256.5" y="109.7627">page(name: string): IPageBuilder;</text><ellipse cx="247.5" cy="119.1797" fill="#84BE84" rx="3" ry="3" style="stroke:#038048;stroke-width:1.0;"/><text fill="#000000" font-family="sans-serif" font-size="11" lengthAdjust="spacing" textLength="87" x="256.5" y="123.5986">validate(): string[];</text><ellipse cx="247.5" cy="133.0156" fill="#84BE84" rx="3" ry="3" style="stroke:#038048;stroke-width:1.0;"/><text fill="#000000" font-family="sans-serif" font-size="11" lengthAdjust="spacing" textLength="60" x="256.5" y="137.4346">get(): Survey;</text><!--MD5=[616a03cc6f93969bbb96bb7d407b6319]
class IPageBuilder--><rect codeLine="11" fill="#FEFECE" filter="url(#f1ttrus9h8qht)" height="67.6719" id="IPageBuilder" style="stroke:#A80036;stroke-width:1.5;" width="392" x="7" y="211"/><ellipse cx="162.75" cy="227" fill="#B4A7E5" rx="11" ry="11" style="stroke:#A80036;stroke-width:1.0;"/><path d="M163.7031,223.6406 L163.7031,230.2969 L165.4219,230.2969 Q166.0313,230.2969 166.2969,230.5313 Q166.5625,230.7656 166.5625,231.1563 Q166.5625,231.5313 166.2969,231.7656 Q166.0313,232 165.4219,232 L160.2813,232 Q159.6719,232 159.4063,231.7656 Q159.1406,231.5313 159.1406,231.1406 Q159.1406,230.7656 159.4063,230.5313 Q159.6719,230.2969 160.2813,230.2969 L162,230.2969 L162,223.6406 L160.2813,223.6406 Q159.6719,223.6406 159.4063,223.4063 Q159.1406,223.1719 159.1406,222.7813 Q159.1406,222.4063 159.4063,222.1719 Q159.6719,221.9375 160.2813,221.9375 L165.4219,221.9375 Q166.0313,221.9375 166.2969,222.1719 Q166.5625,222.4063 166.5625,222.7813 Q166.5625,223.1719 166.2969,223.4063 Q166.0313,223.6406 165.4219,223.6406 L163.7031,223.6406 Z " fill="#000000"/><text fill="#000000" font-family="sans-serif" font-size="12" font-style="italic" lengthAdjust="spacing" textLength="72" x="183.25" y="231.9102">IPageBuilder</text><line style="stroke:#A80036;stroke-width:1.5;" x1="8" x2="398" y1="243" y2="243"/><ellipse cx="18" cy="254" fill="#84BE84" rx="3" ry="3" style="stroke:#038048;stroke-width:1.0;"/><text fill="#000000" font-family="sans-serif" font-size="11" lengthAdjust="spacing" textLength="218" x="27" y="258.4189">translate(lang: string, translation: string): this;</text><ellipse cx="18" cy="267.8359" fill="#84BE84" rx="3" ry="3" style="stroke:#038048;stroke-width:1.0;"/><text fill="#000000" font-family="sans-serif" font-size="11" lengthAdjust="spacing" textLength="366" x="27" y="272.2549">question(wording: string, varname: string, type: ItemType): IPageItemBuilder;</text><!--MD5=[c1145ebbeef946d3d72e58e25ddb2130]
class IPageItemBuilder--><rect codeLine="16" fill="#FEFECE" filter="url(#f1ttrus9h8qht)" height="67.6719" id="IPageItemBuilder" style="stroke:#A80036;stroke-width:1.5;" width="355" x="25.5" y="346"/><ellipse cx="150.25" cy="362" fill="#B4A7E5" rx="11" ry="11" style="stroke:#A80036;stroke-width:1.0;"/><path d="M151.2031,358.6406 L151.2031,365.2969 L152.9219,365.2969 Q153.5313,365.2969 153.7969,365.5313 Q154.0625,365.7656 154.0625,366.1563 Q154.0625,366.5313 153.7969,366.7656 Q153.5313,367 152.9219,367 L147.7813,367 Q147.1719,367 146.9063,366.7656 Q146.6406,366.5313 146.6406,366.1406 Q146.6406,365.7656 146.9063,365.5313 Q147.1719,365.2969 147.7813,365.2969 L149.5,365.2969 L149.5,358.6406 L147.7813,358.6406 Q147.1719,358.6406 146.9063,358.4063 Q146.6406,358.1719 146.6406,357.7813 Q146.6406,357.4063 146.9063,357.1719 Q147.1719,356.9375 147.7813,356.9375 L152.9219,356.9375 Q153.5313,356.9375 153.7969,357.1719 Q154.0625,357.4063 154.0625,357.7813 Q154.0625,358.1719 153.7969,358.4063 Q153.5313,358.6406 152.9219,358.6406 L151.2031,358.6406 Z " fill="#000000"/><text fill="#000000" font-family="sans-serif" font-size="12" font-style="italic" lengthAdjust="spacing" textLength="97" x="170.75" y="366.9102">IPageItemBuilder</text><line style="stroke:#A80036;stroke-width:1.5;" x1="26.5" x2="379.5" y1="378" y2="378"/><ellipse cx="36.5" cy="389" fill="#84BE84" rx="3" ry="3" style="stroke:#038048;stroke-width:1.0;"/><text fill="#000000" font-family="sans-serif" font-size="11" lengthAdjust="spacing" textLength="329" x="45.5" y="393.4189">question(wording: string, varname: string, type: PageItemType): this;</text><ellipse cx="36.5" cy="402.8359" fill="#84BE84" rx="3" ry="3" style="stroke:#038048;stroke-width:1.0;"/><text fill="#000000" font-family="sans-serif" font-size="11" lengthAdjust="spacing" textLength="279" x="45.5" y="407.2549">translate(lang: string, translation: string): IPageItemBuilder;</text><!--MD5=[5d02fd3978de6f3008fc7f730b697fd8]
class IVisitBuilder--><rect codeLine="21" fill="#FEFECE" filter="url(#f1ttrus9h8qht)" height="81.5078" id="IVisitBuilder" style="stroke:#A80036;stroke-width:1.5;" width="248" x="434" y="204"/><ellipse cx="520.75" cy="220" fill="#B4A7E5" rx="11" ry="11" style="stroke:#A80036;stroke-width:1.0;"/><path d="M521.7031,216.6406 L521.7031,223.2969 L523.4219,223.2969 Q524.0313,223.2969 524.2969,223.5313 Q524.5625,223.7656 524.5625,224.1563 Q524.5625,224.5313 524.2969,224.7656 Q524.0313,225 523.4219,225 L518.2813,225 Q517.6719,225 517.4063,224.7656 Q517.1406,224.5313 517.1406,224.1406 Q517.1406,223.7656 517.4063,223.5313 Q517.6719,223.2969 518.2813,223.2969 L520,223.2969 L520,216.6406 L518.2813,216.6406 Q517.6719,216.6406 517.4063,216.4063 Q517.1406,216.1719 517.1406,215.7813 Q517.1406,215.4063 517.4063,215.1719 Q517.6719,214.9375 518.2813,214.9375 L523.4219,214.9375 Q524.0313,214.9375 524.2969,215.1719 Q524.5625,215.4063 524.5625,215.7813 Q524.5625,216.1719 524.2969,216.4063 Q524.0313,216.6406 523.4219,216.6406 L521.7031,216.6406 Z " fill="#000000"/><text fill="#000000" font-family="sans-serif" font-size="12" font-style="italic" lengthAdjust="spacing" textLength="66" x="541.25" y="224.9102">IVisitBuilder</text><line style="stroke:#A80036;stroke-width:1.5;" x1="435" x2="681" y1="236" y2="236"/><ellipse cx="445" cy="247" fill="#84BE84" rx="3" ry="3" style="stroke:#038048;stroke-width:1.0;"/><text fill="#000000" font-family="sans-serif" font-size="11" lengthAdjust="spacing" textLength="222" x="454" y="251.4189">visit(type: string | Record&lt;string, string&gt;): this;</text><ellipse cx="445" cy="260.8359" fill="#84BE84" rx="3" ry="3" style="stroke:#038048;stroke-width:1.0;"/><text fill="#000000" font-family="sans-serif" font-size="11" lengthAdjust="spacing" textLength="218" x="454" y="265.2549">translate(lang: string, translation: string): this;</text><ellipse cx="445" cy="274.6719" fill="#84BE84" rx="3" ry="3" style="stroke:#038048;stroke-width:1.0;"/><text fill="#000000" font-family="sans-serif" font-size="11" lengthAdjust="spacing" textLength="183" x="454" y="279.0908">pages(...names: string[]): IVisitBuilder;</text><!--MD5=[0cb6f49a473cf74bec820298cc2e1353]
link ISurveyBuilder to IPageBuilder--><path codeLine="27" d="M308.52,144.15 C285.85,165.6 261.64,188.51 242.13,206.97 " fill="none" id="ISurveyBuilder-to-IPageBuilder" style="stroke:#A80036;stroke-width:1.0;stroke-dasharray:7.0,7.0;"/><polygon fill="#A80036" points="238.29,210.6,247.5789,207.3263,241.9243,207.166,242.0845,201.5115,238.29,210.6" style="stroke:#A80036;stroke-width:1.0;"/><!--MD5=[35b937ffa5a6221fb52cf4e3ffbf09b0]
link ISurveyBuilder to IVisitBuilder--><path codeLine="28" d="M451.89,144.15 C471.89,162.97 493.09,182.92 511.24,200 " fill="none" id="ISurveyBuilder-to-IVisitBuilder" style="stroke:#A80036;stroke-width:1.0;stroke-dasharray:7.0,7.0;"/><polygon fill="#A80036" points="515.31,203.83,511.4977,194.7489,511.669,200.4032,506.0147,200.5745,515.31,203.83" style="stroke:#A80036;stroke-width:1.0;"/><!--MD5=[e4fd212f5727cce5d71aa81a37501fc2]
link IPageBuilder to IPageItemBuilder--><path codeLine="29" d="M203,279.22 C203,297.79 203,321.02 203,340.39 " fill="none" id="IPageBuilder-to-IPageItemBuilder" style="stroke:#A80036;stroke-width:1.0;stroke-dasharray:7.0,7.0;"/><polygon fill="#A80036" points="203,345.74,207,336.74,203,340.74,199,336.74,203,345.74" style="stroke:#A80036;stroke-width:1.0;"/><!--MD5=[f174f5871513ece8b9c8d6e581b33884]
@startuml
interface ISurveyBuilder {
  +options(options: Partial<SurveyOptions>): void;
  +survey(name: string): this;
  +participantSchema(): IParticipantSchemaBuilder;
  +visit(type: string | Record<string, string>): IVisitBuilder;
  +page(name: string): IPageBuilder;
  +validate(): string[];
  +get(): Survey;
}

interface IPageBuilder {
  +translate(lang: string, translation: string): this;
  +question(wording: string, varname: string, type: ItemType): IPageItemBuilder;
}

interface IPageItemBuilder {
  +question(wording: string, varname: string, type: PageItemType): this;
  +translate(lang: string, translation: string): IPageItemBuilder;
}

interface IVisitBuilder {
  +visit(type: string | Record<string, string>): this;
  +translate(lang: string, translation: string): this;
  +pages(...names: string[]): IVisitBuilder;
}

ISurveyBuilder ..> IPageBuilder
ISurveyBuilder ..> IVisitBuilder
IPageBuilder ..> IPageItemBuilder
hide fields
@enduml

PlantUML version 1.2021.8(Sat Jun 26 10:20:59 CEST 2021)
(GPL source distribution)
Java Runtime: OpenJDK Runtime Environment
JVM: OpenJDK 64-Bit Server VM
Default Encoding: Cp1252
Language: en
Country: US
--></g></svg>