<?xml version="1.0" encoding="UTF-8" standalone="no"?><svg xmlns="http://www.w3.org/2000/svg" xmlns:xlink="http://www.w3.org/1999/xlink" contentScriptType="application/ecmascript" contentStyleType="text/css" height="215px" preserveAspectRatio="none" style="width:618px;height:215px;background:#FFFFFF;" version="1.1" viewBox="0 0 618 215" width="618px" zoomAndPan="magnify"><defs><filter height="300%" id="fwpxmvfy7lpll" width="300%" x="-1" y="-1"><feGaussianBlur result="blurOut" stdDeviation="2.0"/><feColorMatrix in="blurOut" result="blurOut2" type="matrix" values="0 0 0 0 0 0 0 0 0 0 0 0 0 0 0 0 0 0 .4 0"/><feOffset dx="4.0" dy="4.0" in="blurOut2" result="blurOut3"/><feBlend in="SourceGraphic" in2="blurOut3" mode="normal"/></filter></defs><g><!--MD5=[b57d2bdb0ec648c024f70c5efc1808d3]
class Survey--><rect codeLine="1" fill="#FEFECE" filter="url(#fwpxmvfy7lpll)" height="144.8516" id="Survey" style="stroke:#A80036;stroke-width:1.5;" width="179" x="425" y="8"/><ellipse cx="495.25" cy="24" fill="#ADD1B2" rx="11" ry="11" style="stroke:#A80036;stroke-width:1.0;"/><path d="M498.0156,19.875 Q498.1719,19.6563 498.3594,19.5469 Q498.5469,19.4375 498.7656,19.4375 Q499.1406,19.4375 499.375,19.7031 Q499.6094,19.9531 499.6094,20.5625 L499.6094,22.0156 Q499.6094,22.625 499.375,22.8906 Q499.1406,23.1563 498.7656,23.1563 Q498.4219,23.1563 498.2188,22.9531 Q498.0156,22.7656 497.9063,22.25 Q497.8594,21.8906 497.6719,21.7031 Q497.3438,21.3281 496.7344,21.1094 Q496.125,20.8906 495.5,20.8906 Q494.7344,20.8906 494.0938,21.2188 Q493.4688,21.5469 492.9688,22.2969 Q492.4844,23.0469 492.4844,24.0781 L492.4844,25.1719 Q492.4844,26.4063 493.375,27.2344 Q494.2656,28.0469 495.8594,28.0469 Q496.7969,28.0469 497.4531,27.7969 Q497.8438,27.6406 498.2656,27.2031 Q498.5313,26.9375 498.6719,26.8594 Q498.8281,26.7813 499.0313,26.7813 Q499.3594,26.7813 499.6094,27.0469 Q499.875,27.2969 499.875,27.6406 Q499.875,27.9844 499.5313,28.3906 Q499.0313,28.9688 498.2344,29.2969 Q497.1563,29.75 495.8594,29.75 Q494.3438,29.75 493.1406,29.125 Q492.1563,28.625 491.4688,27.5625 Q490.7813,26.4844 490.7813,25.2031 L490.7813,24.0469 Q490.7813,22.7188 491.3906,21.5781 Q492.0156,20.4219 493.1094,19.8125 Q494.2031,19.1875 495.4375,19.1875 Q496.1719,19.1875 496.8125,19.3594 Q497.4688,19.5156 498.0156,19.875 Z " fill="#000000"/><text fill="#000000" font-family="sans-serif" font-size="12" lengthAdjust="spacing" textLength="30" x="515.75" y="28.9102">Survey</text><line style="stroke:#A80036;stroke-width:1.5;" x1="426" x2="603" y1="40" y2="40"/><ellipse cx="436" cy="51" rx="3" ry="3" style="stroke:#038048;stroke-width:1.0;fill:none;"/><text fill="#000000" font-family="sans-serif" font-size="11" lengthAdjust="spacing" textLength="26" x="445" y="55.4189">name</text><ellipse cx="436" cy="64.8359" rx="3" ry="3" style="stroke:#038048;stroke-width:1.0;fill:none;"/><text fill="#000000" font-family="sans-serif" font-size="11" lengthAdjust="spacing" textLength="46" x="445" y="69.2549">pageSets</text><ellipse cx="436" cy="78.6719" rx="3" ry="3" style="stroke:#038048;stroke-width:1.0;fill:none;"/><text fill="#000000" font-family="sans-serif" font-size="11" lengthAdjust="spacing" textLength="30" x="445" y="83.0908">pages</text><ellipse cx="436" cy="92.5078" rx="3" ry="3" style="stroke:#038048;stroke-width:1.0;fill:none;"/><text fill="#000000" font-family="sans-serif" font-size="11" lengthAdjust="spacing" textLength="25" x="445" y="96.9268">items</text><ellipse cx="436" cy="106.3438" rx="3" ry="3" style="stroke:#038048;stroke-width:1.0;fill:none;"/><text fill="#000000" font-family="sans-serif" font-size="11" lengthAdjust="spacing" textLength="53" x="445" y="110.7627">workflows</text><ellipse cx="436" cy="120.1797" rx="3" ry="3" style="stroke:#038048;stroke-width:1.0;fill:none;"/><text fill="#000000" font-family="sans-serif" font-size="11" lengthAdjust="spacing" textLength="55" x="445" y="124.5986">crossRules</text><line style="stroke:#A80036;stroke-width:1.5;" x1="426" x2="603" y1="131.0156" y2="131.0156"/><ellipse cx="436" cy="142.0156" fill="#84BE84" rx="3" ry="3" style="stroke:#038048;stroke-width:1.0;"/><text fill="#000000" font-family="sans-serif" font-size="11" lengthAdjust="spacing" textLength="153" x="445" y="146.4346">update(kwargs: Partial&lt;Survey&gt;)</text><!--MD5=[c95c50643b1d608b6afd49da8da5f992]
class MutableSurvey--><rect codeLine="11" fill="#FEFECE" filter="url(#fwpxmvfy7lpll)" height="194.5469" id="MutableSurvey" style="stroke:#A80036;stroke-width:1.5;" width="257" x="7" y="7"/><ellipse cx="94.75" cy="27.0938" fill="#FF69B4" rx="11" ry="11" style="stroke:#A80036;stroke-width:1.0;"/><path d="M97.5156,22.9688 Q97.6719,22.75 97.8594,22.6406 Q98.0469,22.5313 98.2656,22.5313 Q98.6406,22.5313 98.875,22.7969 Q99.1094,23.0469 99.1094,23.6563 L99.1094,25.1094 Q99.1094,25.7188 98.875,25.9844 Q98.6406,26.25 98.2656,26.25 Q97.9219,26.25 97.7188,26.0469 Q97.5156,25.8594 97.4063,25.3438 Q97.3594,24.9844 97.1719,24.7969 Q96.8438,24.4219 96.2344,24.2031 Q95.625,23.9844 95,23.9844 Q94.2344,23.9844 93.5938,24.3125 Q92.9688,24.6406 92.4688,25.3906 Q91.9844,26.1406 91.9844,27.1719 L91.9844,28.2656 Q91.9844,29.5 92.875,30.3281 Q93.7656,31.1406 95.3594,31.1406 Q96.2969,31.1406 96.9531,30.8906 Q97.3438,30.7344 97.7656,30.2969 Q98.0313,30.0313 98.1719,29.9531 Q98.3281,29.875 98.5313,29.875 Q98.8594,29.875 99.1094,30.1406 Q99.375,30.3906 99.375,30.7344 Q99.375,31.0781 99.0313,31.4844 Q98.5313,32.0625 97.7344,32.3906 Q96.6563,32.8438 95.3594,32.8438 Q93.8438,32.8438 92.6406,32.2188 Q91.6563,31.7188 90.9688,30.6563 Q90.2813,29.5781 90.2813,28.2969 L90.2813,27.1406 Q90.2813,25.8125 90.8906,24.6719 Q91.5156,23.5156 92.6094,22.9063 Q93.7031,22.2813 94.9375,22.2813 Q95.6719,22.2813 96.3125,22.4531 Q96.9688,22.6094 97.5156,22.9688 Z " fill="#000000"/><text fill="#000000" font-family="sans-serif" font-size="12" font-style="italic" lengthAdjust="spacing" textLength="45" x="129.25" y="24.457">«Proxy»</text><text fill="#000000" font-family="sans-serif" font-size="12" lengthAdjust="spacing" textLength="73" x="115.25" y="39.5508">MutableSurvey</text><line style="stroke:#A80036;stroke-width:1.5;" x1="8" x2="263" y1="47.1875" y2="47.1875"/><ellipse cx="18" cy="58.1875" rx="3" ry="3" style="stroke:#038048;stroke-width:1.0;fill:none;"/><text fill="#000000" font-family="sans-serif" font-size="11" lengthAdjust="spacing" textLength="26" x="27" y="62.6064">value</text><ellipse cx="18" cy="72.0234" rx="3" ry="3" style="stroke:#038048;stroke-width:1.0;fill:none;"/><text fill="#000000" font-family="sans-serif" font-size="11" lengthAdjust="spacing" textLength="26" x="27" y="76.4424">name</text><ellipse cx="18" cy="85.8594" rx="3" ry="3" style="stroke:#038048;stroke-width:1.0;fill:none;"/><text fill="#000000" font-family="sans-serif" font-size="11" lengthAdjust="spacing" textLength="46" x="27" y="90.2783">pageSets</text><ellipse cx="18" cy="99.6953" rx="3" ry="3" style="stroke:#038048;stroke-width:1.0;fill:none;"/><text fill="#000000" font-family="sans-serif" font-size="11" lengthAdjust="spacing" textLength="30" x="27" y="104.1143">pages</text><ellipse cx="18" cy="113.5313" rx="3" ry="3" style="stroke:#038048;stroke-width:1.0;fill:none;"/><text fill="#000000" font-family="sans-serif" font-size="11" lengthAdjust="spacing" textLength="25" x="27" y="117.9502">items</text><ellipse cx="18" cy="127.3672" rx="3" ry="3" style="stroke:#038048;stroke-width:1.0;fill:none;"/><text fill="#000000" font-family="sans-serif" font-size="11" lengthAdjust="spacing" textLength="53" x="27" y="131.7861">workflows</text><ellipse cx="18" cy="141.2031" rx="3" ry="3" style="stroke:#038048;stroke-width:1.0;fill:none;"/><text fill="#000000" font-family="sans-serif" font-size="11" lengthAdjust="spacing" textLength="55" x="27" y="145.6221">crossRules</text><line style="stroke:#A80036;stroke-width:1.5;" x1="8" x2="263" y1="152.0391" y2="152.0391"/><ellipse cx="18" cy="163.0391" fill="#84BE84" rx="3" ry="3" style="stroke:#038048;stroke-width:1.0;"/><text fill="#000000" font-family="sans-serif" font-size="11" lengthAdjust="spacing" textLength="153" x="27" y="167.458">update(kwargs: Partial&lt;Survey&gt;)</text><ellipse cx="18" cy="176.875" fill="#84BE84" rx="3" ry="3" style="stroke:#038048;stroke-width:1.0;"/><text fill="#000000" font-family="sans-serif" font-size="11" lengthAdjust="spacing" textLength="231" x="27" y="181.2939">updateItem(page, index, item: Partial&lt;PageItem&gt;)</text><ellipse cx="18" cy="190.7109" fill="#84BE84" rx="3" ry="3" style="stroke:#038048;stroke-width:1.0;"/><text fill="#000000" font-family="sans-serif" font-size="11" lengthAdjust="spacing" textLength="184" x="27" y="195.1299">insertItem(page, index, item: PageItem)</text><!--MD5=[76e0c544eab06e8bcda62f0e135d1781]
link MutableSurvey to Survey--><path codeLine="25" d="M277.4995,57.6055 C277.4995,57.6055 371.03,62.31 411.76,66.79 " fill="none" id="MutableSurvey-Survey" style="stroke:#A80036;stroke-width:1.0;"/><polygon fill="#A80036" points="424.73,68.26,416.2352,63.2761,419.7615,67.6994,415.3383,71.2257,424.73,68.26" style="stroke:#A80036;stroke-width:1.0;"/><line style="stroke:#A80036;stroke-width:1.0;" x1="419.7615" x2="411.81" y1="67.6994" y2="66.8"/><polygon fill="#A80036" points="265.5,57.5,271.4646,61.5526,277.4995,57.6055,271.5349,53.5529,265.5,57.5" style="stroke:#A80036;stroke-width:1.0;"/><text fill="#000000" font-family="sans-serif" font-size="13" lengthAdjust="spacing" textLength="29" x="334" y="56.9951">value</text><!--MD5=[76e0c544eab06e8bcda62f0e135d1781]
link MutableSurvey to Survey--><path codeLine="26" d="M272.07,95.23 C315.69,92.57 363.43,89.66 404.85,87.13 " fill="none" id="MutableSurvey-to-Survey" style="stroke:#A80036;stroke-width:1.0;stroke-dasharray:7.0,7.0;"/><polygon fill="none" points="404.56,80.13,424.95,85.9,405.41,94.11,404.56,80.13" style="stroke:#A80036;stroke-width:1.0;"/><!--MD5=[2aecc85ce7f604494543cb108457e674]
@startuml mutation
class Survey {
  +name
  +pageSets
  +pages
  +items
  +workflows
  +crossRules
  +update(kwargs: Partial<Survey>)
}

class MutableSurvey <<(C, HotPink) Proxy>> {
  +value
  +name
  +pageSets
  +pages
  +items
  +workflows
  +crossRules
  +update(kwargs: Partial<Survey>)
  +updateItem(page, index, item: Partial<PageItem>)
  +insertItem(page, index, item: PageItem)
}

left to right direction
MutableSurvey::value *- - -> Survey : value
MutableSurvey ...|> Survey
@enduml

PlantUML version 1.2021.8(Sat Jun 26 10:20:59 CEST 2021)
(GPL source distribution)
Java Runtime: OpenJDK Runtime Environment
JVM: OpenJDK 64-Bit Server VM
Default Encoding: Cp1252
Language: en
Country: US
--></g></svg>