<?xml version="1.0" encoding="UTF-8" standalone="no"?><svg xmlns="http://www.w3.org/2000/svg" xmlns:xlink="http://www.w3.org/1999/xlink" contentScriptType="application/ecmascript" contentStyleType="text/css" height="439px" preserveAspectRatio="none" style="width:821px;height:439px;background:#FFFFFF;" version="1.1" viewBox="0 0 821 439" width="821px" zoomAndPan="magnify"><defs><filter height="300%" id="f1ei1wglwmchrs" width="300%" x="-1" y="-1"><feGaussianBlur result="blurOut" stdDeviation="2.0"/><feColorMatrix in="blurOut" result="blurOut2" type="matrix" values="0 0 0 0 0 0 0 0 0 0 0 0 0 0 0 0 0 0 .4 0"/><feOffset dx="4.0" dy="4.0" in="blurOut2" result="blurOut3"/><feBlend in="SourceGraphic" in2="blurOut3" mode="normal"/></filter></defs><g><!--MD5=[7b90a0373e11a97a69971d8f6b9d346b]
class PageItem--><rect codeLine="1" fill="#FEFECE" filter="url(#f1ei1wglwmchrs)" height="32" id="PageItem" style="stroke:#A80036;stroke-width:1.5;" width="85" x="55.5" y="393"/><ellipse cx="70.5" cy="409" fill="#ADD1B2" rx="11" ry="11" style="stroke:#A80036;stroke-width:1.0;"/><path d="M73.2656,404.875 Q73.4219,404.6563 73.6094,404.5469 Q73.7969,404.4375 74.0156,404.4375 Q74.3906,404.4375 74.625,404.7031 Q74.8594,404.9531 74.8594,405.5625 L74.8594,407.0156 Q74.8594,407.625 74.625,407.8906 Q74.3906,408.1563 74.0156,408.1563 Q73.6719,408.1563 73.4688,407.9531 Q73.2656,407.7656 73.1563,407.25 Q73.1094,406.8906 72.9219,406.7031 Q72.5938,406.3281 71.9844,406.1094 Q71.375,405.8906 70.75,405.8906 Q69.9844,405.8906 69.3438,406.2188 Q68.7188,406.5469 68.2188,407.2969 Q67.7344,408.0469 67.7344,409.0781 L67.7344,410.1719 Q67.7344,411.4063 68.625,412.2344 Q69.5156,413.0469 71.1094,413.0469 Q72.0469,413.0469 72.7031,412.7969 Q73.0938,412.6406 73.5156,412.2031 Q73.7813,411.9375 73.9219,411.8594 Q74.0781,411.7813 74.2813,411.7813 Q74.6094,411.7813 74.8594,412.0469 Q75.125,412.2969 75.125,412.6406 Q75.125,412.9844 74.7813,413.3906 Q74.2813,413.9688 73.4844,414.2969 Q72.4063,414.75 71.1094,414.75 Q69.5938,414.75 68.3906,414.125 Q67.4063,413.625 66.7188,412.5625 Q66.0313,411.4844 66.0313,410.2031 L66.0313,409.0469 Q66.0313,407.7188 66.6406,406.5781 Q67.2656,405.4219 68.3594,404.8125 Q69.4531,404.1875 70.6875,404.1875 Q71.4219,404.1875 72.0625,404.3594 Q72.7188,404.5156 73.2656,404.875 Z " fill="#000000"/><text fill="#000000" font-family="sans-serif" font-size="12" lengthAdjust="spacing" textLength="53" x="84.5" y="413.9102">PageItem</text><!--MD5=[884d50c948f6d6be2ed92aedfb7bc283]
class InterviewItem--><rect codeLine="2" fill="#FEFECE" filter="url(#f1ei1wglwmchrs)" height="75.6719" id="InterviewItem" style="stroke:#A80036;stroke-width:1.5;" width="182" x="7" y="257"/><ellipse cx="57.75" cy="273" fill="#ADD1B2" rx="11" ry="11" style="stroke:#A80036;stroke-width:1.0;"/><path d="M60.5156,268.875 Q60.6719,268.6563 60.8594,268.5469 Q61.0469,268.4375 61.2656,268.4375 Q61.6406,268.4375 61.875,268.7031 Q62.1094,268.9531 62.1094,269.5625 L62.1094,271.0156 Q62.1094,271.625 61.875,271.8906 Q61.6406,272.1563 61.2656,272.1563 Q60.9219,272.1563 60.7188,271.9531 Q60.5156,271.7656 60.4063,271.25 Q60.3594,270.8906 60.1719,270.7031 Q59.8438,270.3281 59.2344,270.1094 Q58.625,269.8906 58,269.8906 Q57.2344,269.8906 56.5938,270.2188 Q55.9688,270.5469 55.4688,271.2969 Q54.9844,272.0469 54.9844,273.0781 L54.9844,274.1719 Q54.9844,275.4063 55.875,276.2344 Q56.7656,277.0469 58.3594,277.0469 Q59.2969,277.0469 59.9531,276.7969 Q60.3438,276.6406 60.7656,276.2031 Q61.0313,275.9375 61.1719,275.8594 Q61.3281,275.7813 61.5313,275.7813 Q61.8594,275.7813 62.1094,276.0469 Q62.375,276.2969 62.375,276.6406 Q62.375,276.9844 62.0313,277.3906 Q61.5313,277.9688 60.7344,278.2969 Q59.6563,278.75 58.3594,278.75 Q56.8438,278.75 55.6406,278.125 Q54.6563,277.625 53.9688,276.5625 Q53.2813,275.4844 53.2813,274.2031 L53.2813,273.0469 Q53.2813,271.7188 53.8906,270.5781 Q54.5156,269.4219 55.6094,268.8125 Q56.7031,268.1875 57.9375,268.1875 Q58.6719,268.1875 59.3125,268.3594 Q59.9688,268.5156 60.5156,268.875 Z " fill="#000000"/><text fill="#000000" font-family="sans-serif" font-size="12" lengthAdjust="spacing" textLength="72" x="78.25" y="277.9102">InterviewItem</text><line style="stroke:#A80036;stroke-width:1.5;" x1="8" x2="188" y1="289" y2="289"/><ellipse cx="18" cy="300" rx="3" ry="3" style="stroke:#038048;stroke-width:1.0;fill:none;"/><text fill="#000000" font-family="sans-serif" font-size="11" lengthAdjust="spacing" textLength="77" x="27" y="304.4189">value: unknown</text><line style="stroke:#A80036;stroke-width:1.5;" x1="8" x2="188" y1="310.8359" y2="310.8359"/><ellipse cx="18" cy="321.8359" fill="#84BE84" rx="3" ry="3" style="stroke:#038048;stroke-width:1.0;"/><text fill="#000000" font-family="sans-serif" font-size="11" lengthAdjust="spacing" textLength="156" x="27" y="326.2549">get status(): "missing" | "fulfilled"</text><!--MD5=[0d366b7c3d730f7a79955d1b0843cd3b]
class PageSet--><rect codeLine="6" fill="#FEFECE" filter="url(#f1ei1wglwmchrs)" height="32" id="PageSet" style="stroke:#A80036;stroke-width:1.5;" width="79" x="224.5" y="279"/><ellipse cx="239.5" cy="295" fill="#ADD1B2" rx="11" ry="11" style="stroke:#A80036;stroke-width:1.0;"/><path d="M242.2656,290.875 Q242.4219,290.6563 242.6094,290.5469 Q242.7969,290.4375 243.0156,290.4375 Q243.3906,290.4375 243.625,290.7031 Q243.8594,290.9531 243.8594,291.5625 L243.8594,293.0156 Q243.8594,293.625 243.625,293.8906 Q243.3906,294.1563 243.0156,294.1563 Q242.6719,294.1563 242.4688,293.9531 Q242.2656,293.7656 242.1563,293.25 Q242.1094,292.8906 241.9219,292.7031 Q241.5938,292.3281 240.9844,292.1094 Q240.375,291.8906 239.75,291.8906 Q238.9844,291.8906 238.3438,292.2188 Q237.7188,292.5469 237.2188,293.2969 Q236.7344,294.0469 236.7344,295.0781 L236.7344,296.1719 Q236.7344,297.4063 237.625,298.2344 Q238.5156,299.0469 240.1094,299.0469 Q241.0469,299.0469 241.7031,298.7969 Q242.0938,298.6406 242.5156,298.2031 Q242.7813,297.9375 242.9219,297.8594 Q243.0781,297.7813 243.2813,297.7813 Q243.6094,297.7813 243.8594,298.0469 Q244.125,298.2969 244.125,298.6406 Q244.125,298.9844 243.7813,299.3906 Q243.2813,299.9688 242.4844,300.2969 Q241.4063,300.75 240.1094,300.75 Q238.5938,300.75 237.3906,300.125 Q236.4063,299.625 235.7188,298.5625 Q235.0313,297.4844 235.0313,296.2031 L235.0313,295.0469 Q235.0313,293.7188 235.6406,292.5781 Q236.2656,291.4219 237.3594,290.8125 Q238.4531,290.1875 239.6875,290.1875 Q240.4219,290.1875 241.0625,290.3594 Q241.7188,290.5156 242.2656,290.875 Z " fill="#000000"/><text fill="#000000" font-family="sans-serif" font-size="12" lengthAdjust="spacing" textLength="47" x="253.5" y="299.9102">PageSet</text><!--MD5=[189cdaa920282c54fac24e24fd77ed3f]
class Interview--><rect codeLine="7" fill="#FEFECE" filter="url(#f1ei1wglwmchrs)" height="75.6719" id="Interview" style="stroke:#A80036;stroke-width:1.5;" width="289" x="36.5" y="121"/><ellipse cx="152.75" cy="137" fill="#ADD1B2" rx="11" ry="11" style="stroke:#A80036;stroke-width:1.0;"/><path d="M155.5156,132.875 Q155.6719,132.6563 155.8594,132.5469 Q156.0469,132.4375 156.2656,132.4375 Q156.6406,132.4375 156.875,132.7031 Q157.1094,132.9531 157.1094,133.5625 L157.1094,135.0156 Q157.1094,135.625 156.875,135.8906 Q156.6406,136.1563 156.2656,136.1563 Q155.9219,136.1563 155.7188,135.9531 Q155.5156,135.7656 155.4063,135.25 Q155.3594,134.8906 155.1719,134.7031 Q154.8438,134.3281 154.2344,134.1094 Q153.625,133.8906 153,133.8906 Q152.2344,133.8906 151.5938,134.2188 Q150.9688,134.5469 150.4688,135.2969 Q149.9844,136.0469 149.9844,137.0781 L149.9844,138.1719 Q149.9844,139.4063 150.875,140.2344 Q151.7656,141.0469 153.3594,141.0469 Q154.2969,141.0469 154.9531,140.7969 Q155.3438,140.6406 155.7656,140.2031 Q156.0313,139.9375 156.1719,139.8594 Q156.3281,139.7813 156.5313,139.7813 Q156.8594,139.7813 157.1094,140.0469 Q157.375,140.2969 157.375,140.6406 Q157.375,140.9844 157.0313,141.3906 Q156.5313,141.9688 155.7344,142.2969 Q154.6563,142.75 153.3594,142.75 Q151.8438,142.75 150.6406,142.125 Q149.6563,141.625 148.9688,140.5625 Q148.2813,139.4844 148.2813,138.2031 L148.2813,137.0469 Q148.2813,135.7188 148.8906,134.5781 Q149.5156,133.4219 150.6094,132.8125 Q151.7031,132.1875 152.9375,132.1875 Q153.6719,132.1875 154.3125,132.3594 Q154.9688,132.5156 155.5156,132.875 Z " fill="#000000"/><text fill="#000000" font-family="sans-serif" font-size="12" lengthAdjust="spacing" textLength="48" x="173.25" y="141.9102">Interview</text><line style="stroke:#A80036;stroke-width:1.5;" x1="37.5" x2="324.5" y1="153" y2="153"/><ellipse cx="47.5" cy="164" rx="3" ry="3" style="stroke:#038048;stroke-width:1.0;fill:none;"/><text fill="#000000" font-family="sans-serif" font-size="11" lengthAdjust="spacing" textLength="49" x="56.5" y="168.4189">date: Date</text><line style="stroke:#A80036;stroke-width:1.5;" x1="37.5" x2="324.5" y1="174.8359" y2="174.8359"/><ellipse cx="47.5" cy="185.8359" fill="#84BE84" rx="3" ry="3" style="stroke:#038048;stroke-width:1.0;"/><text fill="#000000" font-family="sans-serif" font-size="11" lengthAdjust="spacing" textLength="263" x="56.5" y="190.2549">getStatusForPage(page: Page): "incomplete" | "fulfilled"</text><!--MD5=[7eeb4b838a05227218a56e467b2beb72]
class Sample--><rect codeLine="11" fill="#FEFECE" filter="url(#f1ei1wglwmchrs)" height="53.8359" id="Sample" style="stroke:#A80036;stroke-width:1.5;" width="85" x="376.5" y="7"/><ellipse cx="405.9" cy="23" fill="#ADD1B2" rx="11" ry="11" style="stroke:#A80036;stroke-width:1.0;"/><path d="M408.6656,18.875 Q408.8219,18.6563 409.0094,18.5469 Q409.1969,18.4375 409.4156,18.4375 Q409.7906,18.4375 410.025,18.7031 Q410.2594,18.9531 410.2594,19.5625 L410.2594,21.0156 Q410.2594,21.625 410.025,21.8906 Q409.7906,22.1563 409.4156,22.1563 Q409.0719,22.1563 408.8688,21.9531 Q408.6656,21.7656 408.5563,21.25 Q408.5094,20.8906 408.3219,20.7031 Q407.9938,20.3281 407.3844,20.1094 Q406.775,19.8906 406.15,19.8906 Q405.3844,19.8906 404.7438,20.2188 Q404.1188,20.5469 403.6188,21.2969 Q403.1344,22.0469 403.1344,23.0781 L403.1344,24.1719 Q403.1344,25.4063 404.025,26.2344 Q404.9156,27.0469 406.5094,27.0469 Q407.4469,27.0469 408.1031,26.7969 Q408.4938,26.6406 408.9156,26.2031 Q409.1813,25.9375 409.3219,25.8594 Q409.4781,25.7813 409.6813,25.7813 Q410.0094,25.7813 410.2594,26.0469 Q410.525,26.2969 410.525,26.6406 Q410.525,26.9844 410.1813,27.3906 Q409.6813,27.9688 408.8844,28.2969 Q407.8063,28.75 406.5094,28.75 Q404.9938,28.75 403.7906,28.125 Q402.8063,27.625 402.1188,26.5625 Q401.4313,25.4844 401.4313,24.2031 L401.4313,23.0469 Q401.4313,21.7188 402.0406,20.5781 Q402.6656,19.4219 403.7594,18.8125 Q404.8531,18.1875 406.0875,18.1875 Q406.8219,18.1875 407.4625,18.3594 Q408.1188,18.5156 408.6656,18.875 Z " fill="#000000"/><text fill="#000000" font-family="sans-serif" font-size="12" lengthAdjust="spacing" textLength="21" x="423.1" y="27.9102">Sample</text><line style="stroke:#A80036;stroke-width:1.5;" x1="377.5" x2="460.5" y1="39" y2="39"/><ellipse cx="387.5" cy="50" rx="3" ry="3" style="stroke:#038048;stroke-width:1.0;fill:none;"/><text fill="#000000" font-family="sans-serif" font-size="11" lengthAdjust="spacing" textLength="59" x="396.5" y="54.4189">name: string</text><!--MD5=[b57d2bdb0ec648c024f70c5efc1808d3]
class Survey--><rect codeLine="14" fill="#FEFECE" filter="url(#f1ei1wglwmchrs)" height="53.8359" id="Survey" style="stroke:#A80036;stroke-width:1.5;" width="85" x="360.5" y="132"/><ellipse cx="385.85" cy="148" fill="#ADD1B2" rx="11" ry="11" style="stroke:#A80036;stroke-width:1.0;"/><path d="M388.6156,143.875 Q388.7719,143.6563 388.9594,143.5469 Q389.1469,143.4375 389.3656,143.4375 Q389.7406,143.4375 389.975,143.7031 Q390.2094,143.9531 390.2094,144.5625 L390.2094,146.0156 Q390.2094,146.625 389.975,146.8906 Q389.7406,147.1563 389.3656,147.1563 Q389.0219,147.1563 388.8188,146.9531 Q388.6156,146.7656 388.5063,146.25 Q388.4594,145.8906 388.2719,145.7031 Q387.9438,145.3281 387.3344,145.1094 Q386.725,144.8906 386.1,144.8906 Q385.3344,144.8906 384.6938,145.2188 Q384.0688,145.5469 383.5688,146.2969 Q383.0844,147.0469 383.0844,148.0781 L383.0844,149.1719 Q383.0844,150.4063 383.975,151.2344 Q384.8656,152.0469 386.4594,152.0469 Q387.3969,152.0469 388.0531,151.7969 Q388.4438,151.6406 388.8656,151.2031 Q389.1313,150.9375 389.2719,150.8594 Q389.4281,150.7813 389.6313,150.7813 Q389.9594,150.7813 390.2094,151.0469 Q390.475,151.2969 390.475,151.6406 Q390.475,151.9844 390.1313,152.3906 Q389.6313,152.9688 388.8344,153.2969 Q387.7563,153.75 386.4594,153.75 Q384.9438,153.75 383.7406,153.125 Q382.7563,152.625 382.0688,151.5625 Q381.3813,150.4844 381.3813,149.2031 L381.3813,148.0469 Q381.3813,146.7188 381.9906,145.5781 Q382.6156,144.4219 383.7094,143.8125 Q384.8031,143.1875 386.0375,143.1875 Q386.7719,143.1875 387.4125,143.3594 Q388.0688,143.5156 388.6156,143.875 Z " fill="#000000"/><text fill="#000000" font-family="sans-serif" font-size="12" lengthAdjust="spacing" textLength="30" x="402.15" y="152.9102">Survey</text><line style="stroke:#A80036;stroke-width:1.5;" x1="361.5" x2="444.5" y1="164" y2="164"/><ellipse cx="371.5" cy="175" rx="3" ry="3" style="stroke:#038048;stroke-width:1.0;fill:none;"/><text fill="#000000" font-family="sans-serif" font-size="11" lengthAdjust="spacing" textLength="59" x="380.5" y="179.4189">name: string</text><!--MD5=[9dd4eaa2771a2ff8dbee15cc1e732cab]
class Participant--><rect codeLine="17" fill="#FEFECE" filter="url(#f1ei1wglwmchrs)" height="53.8359" id="Participant" style="stroke:#A80036;stroke-width:1.5;" width="99" x="242.5" y="7"/><ellipse cx="270.55" cy="23" fill="#ADD1B2" rx="11" ry="11" style="stroke:#A80036;stroke-width:1.0;"/><path d="M273.3156,18.875 Q273.4719,18.6563 273.6594,18.5469 Q273.8469,18.4375 274.0656,18.4375 Q274.4406,18.4375 274.675,18.7031 Q274.9094,18.9531 274.9094,19.5625 L274.9094,21.0156 Q274.9094,21.625 274.675,21.8906 Q274.4406,22.1563 274.0656,22.1563 Q273.7219,22.1563 273.5188,21.9531 Q273.3156,21.7656 273.2063,21.25 Q273.1594,20.8906 272.9719,20.7031 Q272.6438,20.3281 272.0344,20.1094 Q271.425,19.8906 270.8,19.8906 Q270.0344,19.8906 269.3938,20.2188 Q268.7688,20.5469 268.2688,21.2969 Q267.7844,22.0469 267.7844,23.0781 L267.7844,24.1719 Q267.7844,25.4063 268.675,26.2344 Q269.5656,27.0469 271.1594,27.0469 Q272.0969,27.0469 272.7531,26.7969 Q273.1438,26.6406 273.5656,26.2031 Q273.8313,25.9375 273.9719,25.8594 Q274.1281,25.7813 274.3313,25.7813 Q274.6594,25.7813 274.9094,26.0469 Q275.175,26.2969 275.175,26.6406 Q275.175,26.9844 274.8313,27.3906 Q274.3313,27.9688 273.5344,28.2969 Q272.4563,28.75 271.1594,28.75 Q269.6438,28.75 268.4406,28.125 Q267.4563,27.625 266.7688,26.5625 Q266.0813,25.4844 266.0813,24.2031 L266.0813,23.0469 Q266.0813,21.7188 266.6906,20.5781 Q267.3156,19.4219 268.4094,18.8125 Q269.5031,18.1875 270.7375,18.1875 Q271.4719,18.1875 272.1125,18.3594 Q272.7688,18.5156 273.3156,18.875 Z " fill="#000000"/><text fill="#000000" font-family="sans-serif" font-size="12" lengthAdjust="spacing" textLength="38" x="287.45" y="27.9102">Participant</text><line style="stroke:#A80036;stroke-width:1.5;" x1="243.5" x2="340.5" y1="39" y2="39"/><ellipse cx="253.5" cy="50" rx="3" ry="3" style="stroke:#038048;stroke-width:1.0;fill:none;"/><text fill="#000000" font-family="sans-serif" font-size="11" lengthAdjust="spacing" textLength="73" x="262.5" y="54.4189">participantId: string</text><!--MD5=[29d7885213d7aa73c6e5f705d758ac6b]
class ParticipantSchemaEntry--><rect fill="#FEFECE" filter="url(#f1ei1wglwmchrs)" height="32" id="ParticipantSchemaEntry" style="stroke:#A80036;stroke-width:1.5;" width="143" x="496.5" y="18"/><ellipse cx="511.5" cy="34" fill="#ADD1B2" rx="11" ry="11" style="stroke:#A80036;stroke-width:1.0;"/><path d="M514.2656,29.875 Q514.4219,29.6563 514.6094,29.5469 Q514.7969,29.4375 515.0156,29.4375 Q515.3906,29.4375 515.625,29.7031 Q515.8594,29.9531 515.8594,30.5625 L515.8594,32.0156 Q515.8594,32.625 515.625,32.8906 Q515.3906,33.1563 515.0156,33.1563 Q514.6719,33.1563 514.4688,32.9531 Q514.2656,32.7656 514.1563,32.25 Q514.1094,31.8906 513.9219,31.7031 Q513.5938,31.3281 512.9844,31.1094 Q512.375,30.8906 511.75,30.8906 Q510.9844,30.8906 510.3438,31.2188 Q509.7188,31.5469 509.2188,32.2969 Q508.7344,33.0469 508.7344,34.0781 L508.7344,35.1719 Q508.7344,36.4063 509.625,37.2344 Q510.5156,38.0469 512.1094,38.0469 Q513.0469,38.0469 513.7031,37.7969 Q514.0938,37.6406 514.5156,37.2031 Q514.7813,36.9375 514.9219,36.8594 Q515.0781,36.7813 515.2813,36.7813 Q515.6094,36.7813 515.8594,37.0469 Q516.125,37.2969 516.125,37.6406 Q516.125,37.9844 515.7813,38.3906 Q515.2813,38.9688 514.4844,39.2969 Q513.4063,39.75 512.1094,39.75 Q510.5938,39.75 509.3906,39.125 Q508.4063,38.625 507.7188,37.5625 Q507.0313,36.4844 507.0313,35.2031 L507.0313,34.0469 Q507.0313,32.7188 507.6406,31.5781 Q508.2656,30.4219 509.3594,29.8125 Q510.4531,29.1875 511.6875,29.1875 Q512.4219,29.1875 513.0625,29.3594 Q513.7188,29.5156 514.2656,29.875 Z " fill="#000000"/><text fill="#000000" font-family="sans-serif" font-size="12" lengthAdjust="spacing" textLength="111" x="525.5" y="38.9102">ParticipantSchemaEntry</text><!--MD5=[aa83dfb32089ddd9eaba08da5d73a9d8]
class ParticipantInformation--><rect fill="#FEFECE" filter="url(#f1ei1wglwmchrs)" height="32" id="ParticipantInformation" style="stroke:#A80036;stroke-width:1.5;" width="132" x="675" y="18"/><ellipse cx="690" cy="34" fill="#ADD1B2" rx="11" ry="11" style="stroke:#A80036;stroke-width:1.0;"/><path d="M692.7656,29.875 Q692.9219,29.6563 693.1094,29.5469 Q693.2969,29.4375 693.5156,29.4375 Q693.8906,29.4375 694.125,29.7031 Q694.3594,29.9531 694.3594,30.5625 L694.3594,32.0156 Q694.3594,32.625 694.125,32.8906 Q693.8906,33.1563 693.5156,33.1563 Q693.1719,33.1563 692.9688,32.9531 Q692.7656,32.7656 692.6563,32.25 Q692.6094,31.8906 692.4219,31.7031 Q692.0938,31.3281 691.4844,31.1094 Q690.875,30.8906 690.25,30.8906 Q689.4844,30.8906 688.8438,31.2188 Q688.2188,31.5469 687.7188,32.2969 Q687.2344,33.0469 687.2344,34.0781 L687.2344,35.1719 Q687.2344,36.4063 688.125,37.2344 Q689.0156,38.0469 690.6094,38.0469 Q691.5469,38.0469 692.2031,37.7969 Q692.5938,37.6406 693.0156,37.2031 Q693.2813,36.9375 693.4219,36.8594 Q693.5781,36.7813 693.7813,36.7813 Q694.1094,36.7813 694.3594,37.0469 Q694.625,37.2969 694.625,37.6406 Q694.625,37.9844 694.2813,38.3906 Q693.7813,38.9688 692.9844,39.2969 Q691.9063,39.75 690.6094,39.75 Q689.0938,39.75 687.8906,39.125 Q686.9063,38.625 686.2188,37.5625 Q685.5313,36.4844 685.5313,35.2031 L685.5313,34.0469 Q685.5313,32.7188 686.1406,31.5781 Q686.7656,30.4219 687.8594,29.8125 Q688.9531,29.1875 690.1875,29.1875 Q690.9219,29.1875 691.5625,29.3594 Q692.2188,29.5156 692.7656,29.875 Z " fill="#000000"/><text fill="#000000" font-family="sans-serif" font-size="12" lengthAdjust="spacing" textLength="100" x="704" y="38.9102">ParticipantInformation</text><!--MD5=[8f93c37994a40a625ab003521b39cb95]
link InterviewItem to PageItem--><path codeLine="20" d="M98,345.29 C98,345.29 98,369.66 98,379.85 " fill="none" id="InterviewItem-PageItem" style="stroke:#A80036;stroke-width:1.0;stroke-dasharray:7.0,7.0;"/><polygon fill="#A80036" points="98,392.95,102,383.95,98,387.95,94,383.95,98,392.95" style="stroke:#A80036;stroke-width:1.0;"/><line style="stroke:#A80036;stroke-width:1.0;" x1="98" x2="98" y1="387.95" y2="379.95"/><polygon fill="#FFFFFF" points="98,333.29,94,339.29,98,345.29,102,339.29,98,333.29" style="stroke:#A80036;stroke-width:1.0;"/><text fill="#000000" font-family="sans-serif" font-size="13" lengthAdjust="spacing" textLength="7" x="89.7969" y="382.2384">1</text><!--MD5=[b7d44feb82fed3af23a79a9d9c4c8b8b]
link Interview to PageSet--><path codeLine="21" d="M210.4408,207.5304 C210.4408,207.5304 237.27,250.84 247.71,267.71 " fill="none" id="Interview-PageSet" style="stroke:#A80036;stroke-width:1.0;stroke-dasharray:7.0,7.0;"/><polygon fill="#A80036" points="254.64,278.89,253.3052,269.132,252.0088,274.6383,246.5025,273.3419,254.64,278.89" style="stroke:#A80036;stroke-width:1.0;"/><line style="stroke:#A80036;stroke-width:1.0;" x1="252.0088" x2="247.8" y1="274.6383" y2="267.845"/><polygon fill="#FFFFFF" points="204.12,197.33,203.8803,204.5371,210.4408,207.5304,210.6805,200.3233,204.12,197.33" style="stroke:#A80036;stroke-width:1.0;"/><text fill="#000000" font-family="sans-serif" font-size="13" lengthAdjust="spacing" textLength="7" x="243.2194" y="268.1577">1</text><!--MD5=[1613770de742b16478b6976970b08f04]
link Participant to Survey--><path codeLine="22" d="M323.5719,70.0056 C323.5719,70.0056 355.88,105.78 370.38,121.85 " fill="none" id="Participant-Survey" style="stroke:#A80036;stroke-width:1.0;stroke-dasharray:7.0,7.0;"/><polygon fill="#A80036" points="379.49,131.95,376.4234,122.5907,376.1376,128.2404,370.488,127.9546,379.49,131.95" style="stroke:#A80036;stroke-width:1.0;"/><line style="stroke:#A80036;stroke-width:1.0;" x1="376.1376" x2="370.785" y1="128.2404" y2="122.3"/><polygon fill="#FFFFFF" points="315.54,61.09,316.5841,68.2251,323.5719,70.0056,322.5278,62.8705,315.54,61.09" style="stroke:#A80036;stroke-width:1.0;"/><text fill="#000000" font-family="sans-serif" font-size="13" lengthAdjust="spacing" textLength="7" x="365.9063" y="120.9645">1</text><!--MD5=[70856ce923feadb0c1c6a12c6b557bd7]
link Participant to Sample--><path codeLine="23" d="M353.61,34 C353.61,34 360.3,34 363.13,34 " fill="none" id="Participant-Sample" style="stroke:#A80036;stroke-width:1.0;stroke-dasharray:7.0,7.0;"/><polygon fill="#A80036" points="376.37,34,367.37,30,371.37,34,367.37,38,376.37,34" style="stroke:#A80036;stroke-width:1.0;"/><line style="stroke:#A80036;stroke-width:1.0;" x1="371.37" x2="363.37" y1="34" y2="34"/><polygon fill="#FFFFFF" points="341.61,34,347.61,38,353.61,34,347.61,30,341.61,34" style="stroke:#A80036;stroke-width:1.0;"/><text fill="#000000" font-family="sans-serif" font-size="13" lengthAdjust="spacing" textLength="7" x="361.4414" y="30.1644">1</text><!--MD5=[4c70b439f10acb5d788d110f7d4114c4]
reverse link Interview to InterviewItem--><path codeLine="24" d="M150.9,208.6 C141.04,224.52 130.25,241.94 121,256.87 " fill="none" id="Interview-backto-InterviewItem" style="stroke:#A80036;stroke-width:1.0;"/><polygon fill="#A80036" points="157.88,197.33,151.3195,200.3233,151.5592,207.5304,158.1197,204.5371,157.88,197.33" style="stroke:#A80036;stroke-width:1.0;"/><text fill="#000000" font-family="sans-serif" font-size="13" lengthAdjust="spacing" textLength="7" x="117.4734" y="246.2087">n</text><!--MD5=[248f7dca6652535240a21d1a50dcbe63]
reverse link Participant to Interview--><path codeLine="25" d="M259.57,70.93 C245.44,86.59 228.88,104.95 214.61,120.75 " fill="none" id="Participant-backto-Interview" style="stroke:#A80036;stroke-width:1.0;"/><polygon fill="#A80036" points="268.46,61.09,261.4722,62.8705,260.4281,70.0056,267.4159,68.2251,268.46,61.09" style="stroke:#A80036;stroke-width:1.0;"/><text fill="#000000" font-family="sans-serif" font-size="13" lengthAdjust="spacing" textLength="7" x="212.9733" y="110.0674">n</text><!--MD5=[5f11f274e7bf75b1a7ecacaad568ff5a]
@startuml
class PageItem {}
class InterviewItem {
    +value: unknown
    +get status(): "missing" | "fulfilled"
}
class PageSet {}
class Interview {
    +date: Date
    +getStatusForPage(page: Page): "incomplete" | "fulfilled"
}
class Sample {
    +name: string
}
class Survey {
    +name: string
}
class Participant {
    +participantId: string
}
InterviewItem o..> "1" PageItem
Interview o..> "1" PageSet
Participant o..> "1" Survey
Participant o.r.> "1" Sample
Interview *- - "n" InterviewItem
Participant *- - "n" Interview
hide methods
hide PageSet members
hide PageItem members
hide ParticipantSchemaEntry members
hide ParticipantInformation members
show InterviewItem methods
show Interview methods
@enduml

PlantUML version 1.2021.8(Sat Jun 26 10:20:59 CEST 2021)
(GPL source distribution)
Java Runtime: OpenJDK Runtime Environment
JVM: OpenJDK 64-Bit Server VM
Default Encoding: Cp1252
Language: en
Country: US
--></g></svg>