<?xml version="1.0" encoding="UTF-8" standalone="no"?><svg xmlns="http://www.w3.org/2000/svg" xmlns:xlink="http://www.w3.org/1999/xlink" contentScriptType="application/ecmascript" contentStyleType="text/css" height="215px" preserveAspectRatio="none" style="width:374px;height:215px;background:#FFFFFF;" version="1.1" viewBox="0 0 374 215" width="374px" zoomAndPan="magnify"><defs><filter height="300%" id="f1dhoe2psyi9jq" width="300%" x="-1" y="-1"><feGaussianBlur result="blurOut" stdDeviation="2.0"/><feColorMatrix in="blurOut" result="blurOut2" type="matrix" values="0 0 0 0 0 0 0 0 0 0 0 0 0 0 0 0 0 0 .4 0"/><feOffset dx="4.0" dy="4.0" in="blurOut2" result="blurOut3"/><feBlend in="SourceGraphic" in2="blurOut3" mode="normal"/></filter></defs><g><!--MD5=[b57d2bdb0ec648c024f70c5efc1808d3]
class Survey--><rect codeLine="1" fill="#FEFECE" filter="url(#f1dhoe2psyi9jq)" height="144.8516" id="Survey" style="stroke:#A80036;stroke-width:1.5;" width="81" x="279" y="27.5"/><ellipse cx="302.55" cy="43.5" fill="#ADD1B2" rx="11" ry="11" style="stroke:#A80036;stroke-width:1.0;"/><path d="M305.3156,39.375 Q305.4719,39.1563 305.6594,39.0469 Q305.8469,38.9375 306.0656,38.9375 Q306.4406,38.9375 306.675,39.2031 Q306.9094,39.4531 306.9094,40.0625 L306.9094,41.5156 Q306.9094,42.125 306.675,42.3906 Q306.4406,42.6563 306.0656,42.6563 Q305.7219,42.6563 305.5188,42.4531 Q305.3156,42.2656 305.2063,41.75 Q305.1594,41.3906 304.9719,41.2031 Q304.6438,40.8281 304.0344,40.6094 Q303.425,40.3906 302.8,40.3906 Q302.0344,40.3906 301.3938,40.7188 Q300.7688,41.0469 300.2688,41.7969 Q299.7844,42.5469 299.7844,43.5781 L299.7844,44.6719 Q299.7844,45.9063 300.675,46.7344 Q301.5656,47.5469 303.1594,47.5469 Q304.0969,47.5469 304.7531,47.2969 Q305.1438,47.1406 305.5656,46.7031 Q305.8313,46.4375 305.9719,46.3594 Q306.1281,46.2813 306.3313,46.2813 Q306.6594,46.2813 306.9094,46.5469 Q307.175,46.7969 307.175,47.1406 Q307.175,47.4844 306.8313,47.8906 Q306.3313,48.4688 305.5344,48.7969 Q304.4563,49.25 303.1594,49.25 Q301.6438,49.25 300.4406,48.625 Q299.4563,48.125 298.7688,47.0625 Q298.0813,45.9844 298.0813,44.7031 L298.0813,43.5469 Q298.0813,42.2188 298.6906,41.0781 Q299.3156,39.9219 300.4094,39.3125 Q301.5031,38.6875 302.7375,38.6875 Q303.4719,38.6875 304.1125,38.8594 Q304.7688,39.0156 305.3156,39.375 Z " fill="#000000"/><text fill="#000000" font-family="sans-serif" font-size="12" lengthAdjust="spacing" textLength="30" x="318.45" y="48.4102">Survey</text><line style="stroke:#A80036;stroke-width:1.5;" x1="280" x2="359" y1="59.5" y2="59.5"/><ellipse cx="290" cy="70.5" rx="3" ry="3" style="stroke:#038048;stroke-width:1.0;fill:none;"/><text fill="#000000" font-family="sans-serif" font-size="11" lengthAdjust="spacing" textLength="26" x="299" y="74.9189">name</text><ellipse cx="290" cy="84.3359" rx="3" ry="3" style="stroke:#038048;stroke-width:1.0;fill:none;"/><text fill="#000000" font-family="sans-serif" font-size="11" lengthAdjust="spacing" textLength="46" x="299" y="88.7549">pageSets</text><ellipse cx="290" cy="98.1719" rx="3" ry="3" style="stroke:#038048;stroke-width:1.0;fill:none;"/><text fill="#000000" font-family="sans-serif" font-size="11" lengthAdjust="spacing" textLength="30" x="299" y="102.5908">pages</text><ellipse cx="290" cy="112.0078" rx="3" ry="3" style="stroke:#038048;stroke-width:1.0;fill:none;"/><text fill="#000000" font-family="sans-serif" font-size="11" lengthAdjust="spacing" textLength="25" x="299" y="116.4268">items</text><ellipse cx="290" cy="125.8438" rx="3" ry="3" style="stroke:#038048;stroke-width:1.0;fill:none;"/><text fill="#000000" font-family="sans-serif" font-size="11" lengthAdjust="spacing" textLength="53" x="299" y="130.2627">workflows</text><ellipse cx="290" cy="139.6797" rx="3" ry="3" style="stroke:#038048;stroke-width:1.0;fill:none;"/><text fill="#000000" font-family="sans-serif" font-size="11" lengthAdjust="spacing" textLength="55" x="299" y="144.0986">crossRules</text><line style="stroke:#A80036;stroke-width:1.5;" x1="280" x2="359" y1="150.5156" y2="150.5156"/><ellipse cx="290" cy="161.5156" fill="#84BE84" rx="3" ry="3" style="stroke:#038048;stroke-width:1.0;"/><text fill="#000000" font-family="sans-serif" font-size="11" lengthAdjust="spacing" textLength="41" x="299" y="165.9346">update()</text><!--MD5=[c95c50643b1d608b6afd49da8da5f992]
class MutableSurvey--><rect codeLine="11" fill="#FEFECE" filter="url(#f1dhoe2psyi9jq)" height="194.5469" id="MutableSurvey" style="stroke:#A80036;stroke-width:1.5;" width="105" x="98" y="7"/><ellipse cx="113" cy="27.0938" fill="#FF69B4" rx="11" ry="11" style="stroke:#A80036;stroke-width:1.0;"/><path d="M115.7656,22.9688 Q115.9219,22.75 116.1094,22.6406 Q116.2969,22.5313 116.5156,22.5313 Q116.8906,22.5313 117.125,22.7969 Q117.3594,23.0469 117.3594,23.6563 L117.3594,25.1094 Q117.3594,25.7188 117.125,25.9844 Q116.8906,26.25 116.5156,26.25 Q116.1719,26.25 115.9688,26.0469 Q115.7656,25.8594 115.6563,25.3438 Q115.6094,24.9844 115.4219,24.7969 Q115.0938,24.4219 114.4844,24.2031 Q113.875,23.9844 113.25,23.9844 Q112.4844,23.9844 111.8438,24.3125 Q111.2188,24.6406 110.7188,25.3906 Q110.2344,26.1406 110.2344,27.1719 L110.2344,28.2656 Q110.2344,29.5 111.125,30.3281 Q112.0156,31.1406 113.6094,31.1406 Q114.5469,31.1406 115.2031,30.8906 Q115.5938,30.7344 116.0156,30.2969 Q116.2813,30.0313 116.4219,29.9531 Q116.5781,29.875 116.7813,29.875 Q117.1094,29.875 117.3594,30.1406 Q117.625,30.3906 117.625,30.7344 Q117.625,31.0781 117.2813,31.4844 Q116.7813,32.0625 115.9844,32.3906 Q114.9063,32.8438 113.6094,32.8438 Q112.0938,32.8438 110.8906,32.2188 Q109.9063,31.7188 109.2188,30.6563 Q108.5313,29.5781 108.5313,28.2969 L108.5313,27.1406 Q108.5313,25.8125 109.1406,24.6719 Q109.7656,23.5156 110.8594,22.9063 Q111.9531,22.2813 113.1875,22.2813 Q113.9219,22.2813 114.5625,22.4531 Q115.2188,22.6094 115.7656,22.9688 Z " fill="#000000"/><text fill="#000000" font-family="sans-serif" font-size="12" font-style="italic" lengthAdjust="spacing" textLength="45" x="141" y="24.457">«Proxy»</text><text fill="#000000" font-family="sans-serif" font-size="12" lengthAdjust="spacing" textLength="73" x="127" y="39.5508">MutableSurvey</text><line style="stroke:#A80036;stroke-width:1.5;" x1="99" x2="202" y1="47.1875" y2="47.1875"/><ellipse cx="109" cy="58.1875" rx="3" ry="3" style="stroke:#038048;stroke-width:1.0;fill:none;"/><text fill="#000000" font-family="sans-serif" font-size="11" lengthAdjust="spacing" textLength="26" x="118" y="62.6064">value</text><ellipse cx="109" cy="72.0234" rx="3" ry="3" style="stroke:#038048;stroke-width:1.0;fill:none;"/><text fill="#000000" font-family="sans-serif" font-size="11" lengthAdjust="spacing" textLength="26" x="118" y="76.4424">name</text><ellipse cx="109" cy="85.8594" rx="3" ry="3" style="stroke:#038048;stroke-width:1.0;fill:none;"/><text fill="#000000" font-family="sans-serif" font-size="11" lengthAdjust="spacing" textLength="46" x="118" y="90.2783">pageSets</text><ellipse cx="109" cy="99.6953" rx="3" ry="3" style="stroke:#038048;stroke-width:1.0;fill:none;"/><text fill="#000000" font-family="sans-serif" font-size="11" lengthAdjust="spacing" textLength="30" x="118" y="104.1143">pages</text><ellipse cx="109" cy="113.5313" rx="3" ry="3" style="stroke:#038048;stroke-width:1.0;fill:none;"/><text fill="#000000" font-family="sans-serif" font-size="11" lengthAdjust="spacing" textLength="25" x="118" y="117.9502">items</text><ellipse cx="109" cy="127.3672" rx="3" ry="3" style="stroke:#038048;stroke-width:1.0;fill:none;"/><text fill="#000000" font-family="sans-serif" font-size="11" lengthAdjust="spacing" textLength="53" x="118" y="131.7861">workflows</text><ellipse cx="109" cy="141.2031" rx="3" ry="3" style="stroke:#038048;stroke-width:1.0;fill:none;"/><text fill="#000000" font-family="sans-serif" font-size="11" lengthAdjust="spacing" textLength="55" x="118" y="145.6221">crossRules</text><line style="stroke:#A80036;stroke-width:1.5;" x1="99" x2="202" y1="152.0391" y2="152.0391"/><ellipse cx="109" cy="163.0391" fill="#84BE84" rx="3" ry="3" style="stroke:#038048;stroke-width:1.0;"/><text fill="#000000" font-family="sans-serif" font-size="11" lengthAdjust="spacing" textLength="41" x="118" y="167.458">update()</text><ellipse cx="109" cy="176.875" fill="#84BE84" rx="3" ry="3" style="stroke:#038048;stroke-width:1.0;"/><text fill="#000000" font-family="sans-serif" font-size="11" lengthAdjust="spacing" textLength="60" x="118" y="181.2939">updateItem()</text><ellipse cx="109" cy="190.7109" fill="#84BE84" rx="3" ry="3" style="stroke:#038048;stroke-width:1.0;"/><text fill="#000000" font-family="sans-serif" font-size="11" lengthAdjust="spacing" textLength="54" x="118" y="195.1299">insertItem()</text><!--MD5=[76e0c544eab06e8bcda62f0e135d1781]
link MutableSurvey to Survey--><path codeLine="25" d="M204.5,70 C235.59,70 244.64,70 273.32,70 " fill="none" id="MutableSurvey-to-Survey" style="stroke:#A80036;stroke-width:1.0;stroke-dasharray:7.0,7.0;"/><polygon fill="#A80036" points="278.5,70,269.5,66,273.5,70,269.5,74,278.5,70" style="stroke:#A80036;stroke-width:1.0;"/><!--MD5=[76e0c544eab06e8bcda62f0e135d1781]
link MutableSurvey to Survey--><path codeLine="26" d="M204.5,83 C235.59,83 244.64,83 273.32,83 " fill="none" id="MutableSurvey-to-Survey-1" style="stroke:#A80036;stroke-width:1.0;stroke-dasharray:7.0,7.0;"/><polygon fill="#A80036" points="278.5,83,269.5,79,273.5,83,269.5,87,278.5,83" style="stroke:#A80036;stroke-width:1.0;"/><!--MD5=[76e0c544eab06e8bcda62f0e135d1781]
link MutableSurvey to Survey--><path codeLine="27" d="M204.5,96 C235.59,96 244.64,96 273.32,96 " fill="none" id="MutableSurvey-to-Survey-2" style="stroke:#A80036;stroke-width:1.0;stroke-dasharray:7.0,7.0;"/><polygon fill="#A80036" points="278.5,96,269.5,92,273.5,96,269.5,100,278.5,96" style="stroke:#A80036;stroke-width:1.0;"/><!--MD5=[76e0c544eab06e8bcda62f0e135d1781]
link MutableSurvey to Survey--><path codeLine="28" d="M204.5,110 C235.59,110 244.64,110 273.32,110 " fill="none" id="MutableSurvey-to-Survey-3" style="stroke:#A80036;stroke-width:1.0;stroke-dasharray:7.0,7.0;"/><polygon fill="#A80036" points="278.5,110,269.5,106,273.5,110,269.5,114,278.5,110" style="stroke:#A80036;stroke-width:1.0;"/><!--MD5=[76e0c544eab06e8bcda62f0e135d1781]
link MutableSurvey to Survey--><path codeLine="29" d="M204.5,123 C235.59,123 244.64,123 273.32,123 " fill="none" id="MutableSurvey-to-Survey-4" style="stroke:#A80036;stroke-width:1.0;stroke-dasharray:7.0,7.0;"/><polygon fill="#A80036" points="278.5,123,269.5,119,273.5,123,269.5,127,278.5,123" style="stroke:#A80036;stroke-width:1.0;"/><!--MD5=[76e0c544eab06e8bcda62f0e135d1781]
link MutableSurvey to Survey--><path codeLine="30" d="M204.5,136 C235.59,136 244.64,136 273.32,136 " fill="none" id="MutableSurvey-to-Survey-5" style="stroke:#A80036;stroke-width:1.0;stroke-dasharray:7.0,7.0;"/><polygon fill="#A80036" points="278.5,136,269.5,132,273.5,136,269.5,140,278.5,136" style="stroke:#A80036;stroke-width:1.0;"/><!--MD5=[76e0c544eab06e8bcda62f0e135d1781]
link MutableSurvey to Survey--><path codeLine="31" d="M204.5,157 C235.59,157 244.64,157 273.32,157 " fill="none" id="MutableSurvey-to-Survey-6" style="stroke:#A80036;stroke-width:1.0;stroke-dasharray:7.0,7.0;"/><polygon fill="#A80036" points="278.5,157,269.5,153,273.5,157,269.5,161,278.5,157" style="stroke:#A80036;stroke-width:1.0;"/><!--MD5=[b50bdb6c1e41ca59d1ed840a21158db7]
link MutableSurvey to MutableSurvey--><path codeLine="32" d="M129.36,163.07 C78.54,173.24 6,165.27 6,107 C6,50.66 73.8,41.35 124.23,49.98 " fill="none" id="MutableSurvey-to-MutableSurvey" style="stroke:#A80036;stroke-width:1.0;stroke-dasharray:7.0,7.0;"/><polygon fill="#A80036" points="129.36,50.93,121.2278,45.3741,124.4418,50.0293,119.7867,53.2433,129.36,50.93" style="stroke:#A80036;stroke-width:1.0;"/><!--MD5=[b50bdb6c1e41ca59d1ed840a21158db7]
link MutableSurvey to MutableSurvey--><path codeLine="33" d="M129.36,176.05 C78.54,186.12 6,177.38 6,113.5 C6,51.74 73.8,41.52 124.23,50.01 " fill="none" id="MutableSurvey-to-MutableSurvey-1" style="stroke:#A80036;stroke-width:1.0;stroke-dasharray:7.0,7.0;"/><polygon fill="#A80036" points="129.36,50.95,121.2278,45.3941,124.4418,50.0493,119.7867,53.2633,129.36,50.95" style="stroke:#A80036;stroke-width:1.0;"/><!--MD5=[b50bdb6c1e41ca59d1ed840a21158db7]
link MutableSurvey to MutableSurvey--><path codeLine="34" d="M129.36,189.04 C78.54,199 6,189.49 6,120 C6,52.81 73.8,41.7 124.23,50.04 " fill="none" id="MutableSurvey-to-MutableSurvey-2" style="stroke:#A80036;stroke-width:1.0;stroke-dasharray:7.0,7.0;"/><polygon fill="#A80036" points="129.36,50.96,121.2094,45.4312,124.4388,50.0756,119.7944,53.305,129.36,50.96" style="stroke:#A80036;stroke-width:1.0;"/><!--MD5=[0460995b1c18317bfde5f4d8482aa75b]
@startuml proxy
class Survey {
  +name
  +pageSets
  +pages
  +items
  +workflows
  +crossRules
  +update()
}

class MutableSurvey <<(C, HotPink) Proxy>> {
  +value
  +name
  +pageSets
  +pages
  +items
  +workflows
  +crossRules
  +update()
  +updateItem()
  +insertItem()
}

left to right direction
MutableSurvey::name ..> Survey::name
MutableSurvey::pageSets ..> Survey::pageSets
MutableSurvey::pages ..> Survey::pages
MutableSurvey::items ..> Survey::items
MutableSurvey::workflows ..> Survey::workflows
MutableSurvey::crossRules ..> Survey::crossRules
MutableSurvey::update ..> Survey::update
MutableSurvey::update ..> MutableSurvey::value
MutableSurvey::updateItem ..> MutableSurvey::value
MutableSurvey::insertItem ..> MutableSurvey::value
@enduml

PlantUML version 1.2021.8(Sat Jun 26 10:20:59 CEST 2021)
(GPL source distribution)
Java Runtime: OpenJDK Runtime Environment
JVM: OpenJDK 64-Bit Server VM
Default Encoding: Cp1252
Language: en
Country: US
--></g></svg>