<?xml version="1.0" encoding="UTF-8" standalone="no"?><svg xmlns="http://www.w3.org/2000/svg" xmlns:xlink="http://www.w3.org/1999/xlink" contentScriptType="application/ecmascript" contentStyleType="text/css" height="558px" preserveAspectRatio="none" style="width:340px;height:558px;background:#FFFFFF;" version="1.1" viewBox="0 0 340 558" width="340px" zoomAndPan="magnify"><defs><filter height="300%" id="f1qxut5qmtf34v" width="300%" x="-1" y="-1"><feGaussianBlur result="blurOut" stdDeviation="2.0"/><feColorMatrix in="blurOut" result="blurOut2" type="matrix" values="0 0 0 0 0 0 0 0 0 0 0 0 0 0 0 0 0 0 .4 0"/><feOffset dx="4.0" dy="4.0" in="blurOut2" result="blurOut3"/><feBlend in="SourceGraphic" in2="blurOut3" mode="normal"/></filter></defs><g><!--MD5=[d70ec2599807b838f67ad031716e5dfb]
class ItemType--><rect codeLine="1" fill="#FEFECE" filter="url(#f1qxut5qmtf34v)" height="32" id="ItemType" style="stroke:#A80036;stroke-width:1.5;" width="84" x="242" y="502"/><ellipse cx="257" cy="518" fill="#B4A7E5" rx="11" ry="11" style="stroke:#A80036;stroke-width:1.0;"/><path d="M257.9531,514.6406 L257.9531,521.2969 L259.6719,521.2969 Q260.2813,521.2969 260.5469,521.5313 Q260.8125,521.7656 260.8125,522.1563 Q260.8125,522.5313 260.5469,522.7656 Q260.2813,523 259.6719,523 L254.5313,523 Q253.9219,523 253.6563,522.7656 Q253.3906,522.5313 253.3906,522.1406 Q253.3906,521.7656 253.6563,521.5313 Q253.9219,521.2969 254.5313,521.2969 L256.25,521.2969 L256.25,514.6406 L254.5313,514.6406 Q253.9219,514.6406 253.6563,514.4063 Q253.3906,514.1719 253.3906,513.7813 Q253.3906,513.4063 253.6563,513.1719 Q253.9219,512.9375 254.5313,512.9375 L259.6719,512.9375 Q260.2813,512.9375 260.5469,513.1719 Q260.8125,513.4063 260.8125,513.7813 Q260.8125,514.1719 260.5469,514.4063 Q260.2813,514.6406 259.6719,514.6406 L257.9531,514.6406 Z " fill="#000000"/><text fill="#000000" font-family="sans-serif" font-size="12" font-style="italic" lengthAdjust="spacing" textLength="52" x="271" y="522.9102">ItemType</text><!--MD5=[7b90a0373e11a97a69971d8f6b9d346b]
class PageItem--><rect codeLine="3" fill="#FEFECE" filter="url(#f1qxut5qmtf34v)" height="81.5078" id="PageItem" style="stroke:#A80036;stroke-width:1.5;" width="102" x="176" y="349"/><ellipse cx="198.65" cy="365" fill="#ADD1B2" rx="11" ry="11" style="stroke:#A80036;stroke-width:1.0;"/><path d="M201.4156,360.875 Q201.5719,360.6563 201.7594,360.5469 Q201.9469,360.4375 202.1656,360.4375 Q202.5406,360.4375 202.775,360.7031 Q203.0094,360.9531 203.0094,361.5625 L203.0094,363.0156 Q203.0094,363.625 202.775,363.8906 Q202.5406,364.1563 202.1656,364.1563 Q201.8219,364.1563 201.6188,363.9531 Q201.4156,363.7656 201.3063,363.25 Q201.2594,362.8906 201.0719,362.7031 Q200.7438,362.3281 200.1344,362.1094 Q199.525,361.8906 198.9,361.8906 Q198.1344,361.8906 197.4938,362.2188 Q196.8688,362.5469 196.3688,363.2969 Q195.8844,364.0469 195.8844,365.0781 L195.8844,366.1719 Q195.8844,367.4063 196.775,368.2344 Q197.6656,369.0469 199.2594,369.0469 Q200.1969,369.0469 200.8531,368.7969 Q201.2438,368.6406 201.6656,368.2031 Q201.9313,367.9375 202.0719,367.8594 Q202.2281,367.7813 202.4313,367.7813 Q202.7594,367.7813 203.0094,368.0469 Q203.275,368.2969 203.275,368.6406 Q203.275,368.9844 202.9313,369.3906 Q202.4313,369.9688 201.6344,370.2969 Q200.5563,370.75 199.2594,370.75 Q197.7438,370.75 196.5406,370.125 Q195.5563,369.625 194.8688,368.5625 Q194.1813,367.4844 194.1813,366.2031 L194.1813,365.0469 Q194.1813,363.7188 194.7906,362.5781 Q195.4156,361.4219 196.5094,360.8125 Q197.6031,360.1875 198.8375,360.1875 Q199.5719,360.1875 200.2125,360.3594 Q200.8688,360.5156 201.4156,360.875 Z " fill="#000000"/><text fill="#000000" font-family="sans-serif" font-size="12" lengthAdjust="spacing" textLength="53" x="214.35" y="369.9102">PageItem</text><line style="stroke:#A80036;stroke-width:1.5;" x1="177" x2="277" y1="381" y2="381"/><ellipse cx="187" cy="392" rx="3" ry="3" style="stroke:#038048;stroke-width:1.0;fill:none;"/><text fill="#000000" font-family="sans-serif" font-size="11" lengthAdjust="spacing" textLength="73" x="196" y="396.4189">wording: string</text><ellipse cx="187" cy="405.8359" rx="3" ry="3" style="stroke:#038048;stroke-width:1.0;fill:none;"/><text fill="#000000" font-family="sans-serif" font-size="11" lengthAdjust="spacing" textLength="76" x="196" y="410.2549">varName: string</text><ellipse cx="187" cy="419.6719" rx="3" ry="3" style="stroke:#038048;stroke-width:1.0;fill:none;"/><text fill="#000000" font-family="sans-serif" font-size="11" lengthAdjust="spacing" textLength="68" x="196" y="424.0908">section: string</text><!--MD5=[4cf87534c235239d37db4adfd136fff4]
class Rule--><rect codeLine="8" fill="#FEFECE" filter="url(#f1qxut5qmtf34v)" height="53.8359" id="Rule" style="stroke:#A80036;stroke-width:1.5;" width="200" x="7" y="491"/><ellipse cx="89.75" cy="507" fill="#B4A7E5" rx="11" ry="11" style="stroke:#A80036;stroke-width:1.0;"/><path d="M90.7031,503.6406 L90.7031,510.2969 L92.4219,510.2969 Q93.0313,510.2969 93.2969,510.5313 Q93.5625,510.7656 93.5625,511.1563 Q93.5625,511.5313 93.2969,511.7656 Q93.0313,512 92.4219,512 L87.2813,512 Q86.6719,512 86.4063,511.7656 Q86.1406,511.5313 86.1406,511.1406 Q86.1406,510.7656 86.4063,510.5313 Q86.6719,510.2969 87.2813,510.2969 L89,510.2969 L89,503.6406 L87.2813,503.6406 Q86.6719,503.6406 86.4063,503.4063 Q86.1406,503.1719 86.1406,502.7813 Q86.1406,502.4063 86.4063,502.1719 Q86.6719,501.9375 87.2813,501.9375 L92.4219,501.9375 Q93.0313,501.9375 93.2969,502.1719 Q93.5625,502.4063 93.5625,502.7813 Q93.5625,503.1719 93.2969,503.4063 Q93.0313,503.6406 92.4219,503.6406 L90.7031,503.6406 Z " fill="#000000"/><text fill="#000000" font-family="sans-serif" font-size="12" font-style="italic" lengthAdjust="spacing" textLength="26" x="110.25" y="511.9102">Rule</text><line style="stroke:#A80036;stroke-width:1.5;" x1="8" x2="206" y1="523" y2="523"/><ellipse cx="18" cy="534" fill="#84BE84" rx="3" ry="3" style="stroke:#038048;stroke-width:1.0;"/><text fill="#000000" font-family="sans-serif" font-size="11" lengthAdjust="spacing" textLength="174" x="27" y="538.4189">execute(...args: unknown[]): string[]</text><!--MD5=[963c581970a8454b3a756a0cdf1eb396]
class CrossamplemRule--><rect codeLine="11" fill="#FEFECE" filter="url(#f1qxut5qmtf34v)" height="32" id="CrossamplemRule" style="stroke:#A80036;stroke-width:1.5;" width="116" x="49" y="246"/><ellipse cx="64" cy="262" fill="#ADD1B2" rx="11" ry="11" style="stroke:#A80036;stroke-width:1.0;"/><path d="M66.7656,257.875 Q66.9219,257.6563 67.1094,257.5469 Q67.2969,257.4375 67.5156,257.4375 Q67.8906,257.4375 68.125,257.7031 Q68.3594,257.9531 68.3594,258.5625 L68.3594,260.0156 Q68.3594,260.625 68.125,260.8906 Q67.8906,261.1563 67.5156,261.1563 Q67.1719,261.1563 66.9688,260.9531 Q66.7656,260.7656 66.6563,260.25 Q66.6094,259.8906 66.4219,259.7031 Q66.0938,259.3281 65.4844,259.1094 Q64.875,258.8906 64.25,258.8906 Q63.4844,258.8906 62.8438,259.2188 Q62.2188,259.5469 61.7188,260.2969 Q61.2344,261.0469 61.2344,262.0781 L61.2344,263.1719 Q61.2344,264.4063 62.125,265.2344 Q63.0156,266.0469 64.6094,266.0469 Q65.5469,266.0469 66.2031,265.7969 Q66.5938,265.6406 67.0156,265.2031 Q67.2813,264.9375 67.4219,264.8594 Q67.5781,264.7813 67.7813,264.7813 Q68.1094,264.7813 68.3594,265.0469 Q68.625,265.2969 68.625,265.6406 Q68.625,265.9844 68.2813,266.3906 Q67.7813,266.9688 66.9844,267.2969 Q65.9063,267.75 64.6094,267.75 Q63.0938,267.75 61.8906,267.125 Q60.9063,266.625 60.2188,265.5625 Q59.5313,264.4844 59.5313,263.2031 L59.5313,262.0469 Q59.5313,260.7188 60.1406,259.5781 Q60.7656,258.4219 61.8594,257.8125 Q62.9531,257.1875 64.1875,257.1875 Q64.9219,257.1875 65.5625,257.3594 Q66.2188,257.5156 66.7656,257.875 Z " fill="#000000"/><text fill="#000000" font-family="sans-serif" font-size="12" lengthAdjust="spacing" textLength="84" x="78" y="266.9102">CrossamplemRule</text><!--MD5=[6a494c20d032ff54e1efa92c1369bc7b]
class Page--><rect codeLine="13" fill="#FEFECE" filter="url(#f1qxut5qmtf34v)" height="53.8359" id="Page" style="stroke:#A80036;stroke-width:1.5;" width="85" x="200.5" y="235"/><ellipse cx="226.3" cy="251" fill="#ADD1B2" rx="11" ry="11" style="stroke:#A80036;stroke-width:1.0;"/><path d="M229.0656,246.875 Q229.2219,246.6563 229.4094,246.5469 Q229.5969,246.4375 229.8156,246.4375 Q230.1906,246.4375 230.425,246.7031 Q230.6594,246.9531 230.6594,247.5625 L230.6594,249.0156 Q230.6594,249.625 230.425,249.8906 Q230.1906,250.1563 229.8156,250.1563 Q229.4719,250.1563 229.2688,249.9531 Q229.0656,249.7656 228.9563,249.25 Q228.9094,248.8906 228.7219,248.7031 Q228.3938,248.3281 227.7844,248.1094 Q227.175,247.8906 226.55,247.8906 Q225.7844,247.8906 225.1438,248.2188 Q224.5188,248.5469 224.0188,249.2969 Q223.5344,250.0469 223.5344,251.0781 L223.5344,252.1719 Q223.5344,253.4063 224.425,254.2344 Q225.3156,255.0469 226.9094,255.0469 Q227.8469,255.0469 228.5031,254.7969 Q228.8938,254.6406 229.3156,254.2031 Q229.5813,253.9375 229.7219,253.8594 Q229.8781,253.7813 230.0813,253.7813 Q230.4094,253.7813 230.6594,254.0469 Q230.925,254.2969 230.925,254.6406 Q230.925,254.9844 230.5813,255.3906 Q230.0813,255.9688 229.2844,256.2969 Q228.2063,256.75 226.9094,256.75 Q225.3938,256.75 224.1906,256.125 Q223.2063,255.625 222.5188,254.5625 Q221.8313,253.4844 221.8313,252.2031 L221.8313,251.0469 Q221.8313,249.7188 222.4406,248.5781 Q223.0656,247.4219 224.1594,246.8125 Q225.2531,246.1875 226.4875,246.1875 Q227.2219,246.1875 227.8625,246.3594 Q228.5188,246.5156 229.0656,246.875 Z " fill="#000000"/><text fill="#000000" font-family="sans-serif" font-size="12" lengthAdjust="spacing" textLength="29" x="242.7" y="255.9102">Page</text><line style="stroke:#A80036;stroke-width:1.5;" x1="201.5" x2="284.5" y1="267" y2="267"/><ellipse cx="211.5" cy="278" rx="3" ry="3" style="stroke:#038048;stroke-width:1.0;fill:none;"/><text fill="#000000" font-family="sans-serif" font-size="11" lengthAdjust="spacing" textLength="59" x="220.5" y="282.4189">name: string</text><!--MD5=[0d366b7c3d730f7a79955d1b0843cd3b]
class PageSet--><rect codeLine="16" fill="#FEFECE" filter="url(#f1qxut5qmtf34v)" height="53.8359" id="PageSet" style="stroke:#A80036;stroke-width:1.5;" width="80" x="231" y="121"/><ellipse cx="246.45" cy="137" fill="#ADD1B2" rx="11" ry="11" style="stroke:#A80036;stroke-width:1.0;"/><path d="M249.2156,132.875 Q249.3719,132.6563 249.5594,132.5469 Q249.7469,132.4375 249.9656,132.4375 Q250.3406,132.4375 250.575,132.7031 Q250.8094,132.9531 250.8094,133.5625 L250.8094,135.0156 Q250.8094,135.625 250.575,135.8906 Q250.3406,136.1563 249.9656,136.1563 Q249.6219,136.1563 249.4188,135.9531 Q249.2156,135.7656 249.1063,135.25 Q249.0594,134.8906 248.8719,134.7031 Q248.5438,134.3281 247.9344,134.1094 Q247.325,133.8906 246.7,133.8906 Q245.9344,133.8906 245.2938,134.2188 Q244.6688,134.5469 244.1688,135.2969 Q243.6844,136.0469 243.6844,137.0781 L243.6844,138.1719 Q243.6844,139.4063 244.575,140.2344 Q245.4656,141.0469 247.0594,141.0469 Q247.9969,141.0469 248.6531,140.7969 Q249.0438,140.6406 249.4656,140.2031 Q249.7313,139.9375 249.8719,139.8594 Q250.0281,139.7813 250.2313,139.7813 Q250.5594,139.7813 250.8094,140.0469 Q251.075,140.2969 251.075,140.6406 Q251.075,140.9844 250.7313,141.3906 Q250.2313,141.9688 249.4344,142.2969 Q248.3563,142.75 247.0594,142.75 Q245.5438,142.75 244.3406,142.125 Q243.3563,141.625 242.6688,140.5625 Q241.9813,139.4844 241.9813,138.2031 L241.9813,137.0469 Q241.9813,135.7188 242.5906,134.5781 Q243.2156,133.4219 244.3094,132.8125 Q245.4031,132.1875 246.6375,132.1875 Q247.3719,132.1875 248.0125,132.3594 Q248.6688,132.5156 249.2156,132.875 Z " fill="#000000"/><text fill="#000000" font-family="sans-serif" font-size="12" lengthAdjust="spacing" textLength="47" x="260.55" y="141.9102">PageSet</text><line style="stroke:#A80036;stroke-width:1.5;" x1="232" x2="310" y1="153" y2="153"/><ellipse cx="242" cy="164" rx="3" ry="3" style="stroke:#038048;stroke-width:1.0;fill:none;"/><text fill="#000000" font-family="sans-serif" font-size="11" lengthAdjust="spacing" textLength="54" x="251" y="168.4189">type: string</text><!--MD5=[b57d2bdb0ec648c024f70c5efc1808d3]
class Survey--><rect codeLine="19" fill="#FEFECE" filter="url(#f1qxut5qmtf34v)" height="53.8359" id="Survey" style="stroke:#A80036;stroke-width:1.5;" width="85" x="135.5" y="7"/><ellipse cx="160.85" cy="23" fill="#ADD1B2" rx="11" ry="11" style="stroke:#A80036;stroke-width:1.0;"/><path d="M163.6156,18.875 Q163.7719,18.6563 163.9594,18.5469 Q164.1469,18.4375 164.3656,18.4375 Q164.7406,18.4375 164.975,18.7031 Q165.2094,18.9531 165.2094,19.5625 L165.2094,21.0156 Q165.2094,21.625 164.975,21.8906 Q164.7406,22.1563 164.3656,22.1563 Q164.0219,22.1563 163.8188,21.9531 Q163.6156,21.7656 163.5063,21.25 Q163.4594,20.8906 163.2719,20.7031 Q162.9438,20.3281 162.3344,20.1094 Q161.725,19.8906 161.1,19.8906 Q160.3344,19.8906 159.6938,20.2188 Q159.0688,20.5469 158.5688,21.2969 Q158.0844,22.0469 158.0844,23.0781 L158.0844,24.1719 Q158.0844,25.4063 158.975,26.2344 Q159.8656,27.0469 161.4594,27.0469 Q162.3969,27.0469 163.0531,26.7969 Q163.4438,26.6406 163.8656,26.2031 Q164.1313,25.9375 164.2719,25.8594 Q164.4281,25.7813 164.6313,25.7813 Q164.9594,25.7813 165.2094,26.0469 Q165.475,26.2969 165.475,26.6406 Q165.475,26.9844 165.1313,27.3906 Q164.6313,27.9688 163.8344,28.2969 Q162.7563,28.75 161.4594,28.75 Q159.9438,28.75 158.7406,28.125 Q157.7563,27.625 157.0688,26.5625 Q156.3813,25.4844 156.3813,24.2031 L156.3813,23.0469 Q156.3813,21.7188 156.9906,20.5781 Q157.6156,19.4219 158.7094,18.8125 Q159.8031,18.1875 161.0375,18.1875 Q161.7719,18.1875 162.4125,18.3594 Q163.0688,18.5156 163.6156,18.875 Z " fill="#000000"/><text fill="#000000" font-family="sans-serif" font-size="12" lengthAdjust="spacing" textLength="30" x="177.15" y="27.9102">Survey</text><line style="stroke:#A80036;stroke-width:1.5;" x1="136.5" x2="219.5" y1="39" y2="39"/><ellipse cx="146.5" cy="50" rx="3" ry="3" style="stroke:#038048;stroke-width:1.0;fill:none;"/><text fill="#000000" font-family="sans-serif" font-size="11" lengthAdjust="spacing" textLength="59" x="155.5" y="54.4189">name: string</text><!--MD5=[07d0c343d08bc66b4ced90a63e7e6de4]
reverse link PageItem to Rule--><path codeLine="22" d="M179.37,441.02 C163.2,457.99 145.79,476.27 132.09,490.65 " fill="none" id="PageItem-backto-Rule" style="stroke:#A80036;stroke-width:1.0;"/><polygon fill="#FFFFFF" points="188.7,431.21,181.665,432.7941,180.4215,439.8971,187.4565,438.3131,188.7,431.21" style="stroke:#A80036;stroke-width:1.0;"/><text fill="#000000" font-family="sans-serif" font-size="13" lengthAdjust="spacing" textLength="7" x="130.0827" y="480.03">n</text><!--MD5=[556f67e0f69823e4755dec806f18e4c3]
reverse link Page to PageItem--><path codeLine="23" d="M237.99,302.44 C236.13,317.11 234.01,333.77 232.14,348.53 " fill="none" id="Page-backto-PageItem" style="stroke:#A80036;stroke-width:1.0;"/><polygon fill="#A80036" points="239.68,289.11,234.9541,294.5566,238.164,301.0139,242.89,295.5673,239.68,289.11" style="stroke:#A80036;stroke-width:1.0;"/><text fill="#000000" font-family="sans-serif" font-size="13" lengthAdjust="spacing" textLength="7" x="225.4014" y="338.2081">n</text><!--MD5=[64be817244a3aca6f616d9b0dd91d196]
link PageSet to Page--><path codeLine="24" d="M261.5389,186.904 C261.5389,186.904 255.46,211.16 252.72,222.13 " fill="none" id="PageSet-Page" style="stroke:#A80036;stroke-width:1.0;"/><polygon fill="#A80036" points="249.52,234.91,255.5855,227.1505,250.734,230.0596,247.8248,225.2081,249.52,234.91" style="stroke:#A80036;stroke-width:1.0;"/><line style="stroke:#A80036;stroke-width:1.0;" x1="250.734" x2="252.675" y1="230.0596" y2="222.295"/><polygon fill="#FFFFFF" points="264.44,175.26,259.1081,180.115,261.5389,186.904,266.8708,182.0491,264.44,175.26" style="stroke:#A80036;stroke-width:1.0;"/><text fill="#000000" font-family="sans-serif" font-size="13" lengthAdjust="spacing" textLength="7" x="243.2184" y="224.3502">n</text><!--MD5=[1c0e9c57330d5c4ff0c59d166f22e12f]
reverse link Survey to PageSet--><path codeLine="25" d="M208.26,71.44 C221.66,87.58 237.11,106.19 249.33,120.91 " fill="none" id="Survey-backto-PageSet" style="stroke:#A80036;stroke-width:1.0;"/><polygon fill="#A80036" points="199.8,61.26,200.5602,68.4309,207.4718,70.4873,206.7117,63.3164,199.8,61.26" style="stroke:#A80036;stroke-width:1.0;"/><text fill="#000000" font-family="sans-serif" font-size="13" lengthAdjust="spacing" textLength="7" x="236.5094" y="110.3502">n</text><!--MD5=[0c728da662a317b3ee76358c21c85b00]
reverse link Survey to Page--><path codeLine="26" d="M187.25,74.13 C194.1,102.32 203.97,141.19 214,175 C220.01,195.24 227.67,217.86 233.61,234.81 " fill="none" id="Survey-backto-Page" style="stroke:#A80036;stroke-width:1.0;"/><polygon fill="#A80036" points="184.13,61.22,181.6468,67.99,186.941,72.8861,189.4242,66.1161,184.13,61.22" style="stroke:#A80036;stroke-width:1.0;"/><text fill="#000000" font-family="sans-serif" font-size="13" lengthAdjust="spacing" textLength="7" x="223.6292" y="224.227">n</text><!--MD5=[283ae1b3885d1ae7ead154ba66c08076]
reverse link Survey to CrossamplemRule--><path codeLine="27" d="M165.73,74.06 C149.79,124.81 122.7,211.03 111.78,245.8 " fill="none" id="Survey-backto-CrossamplemRule" style="stroke:#A80036;stroke-width:1.0;"/><polygon fill="#A80036" points="169.72,61.37,164.1089,65.8994,166.1317,72.8209,171.7428,68.2916,169.72,61.37" style="stroke:#A80036;stroke-width:1.0;"/><text fill="#000000" font-family="sans-serif" font-size="13" lengthAdjust="spacing" textLength="7" x="105.22" y="235.0368">n</text><!--MD5=[4c7934265156eb13f26576dfe4cf53be]
reverse link CrossamplemRule to PageItem--><path codeLine="28" d="M130.7,287.88 C147.23,305.24 169.66,328.79 188.71,348.8 " fill="none" id="CrossamplemRule-backto-PageItem" style="stroke:#A80036;stroke-width:1.0;"/><polygon fill="#FFFFFF" points="121.71,278.45,122.9533,285.5531,129.9882,287.1375,128.7449,280.0343,121.71,278.45" style="stroke:#A80036;stroke-width:1.0;"/><text fill="#000000" font-family="sans-serif" font-size="13" lengthAdjust="spacing" textLength="7" x="174.7885" y="338.2162">n</text><!--MD5=[286293b95ebbb9dc16fda3d3bfe81504]
reverse link CrossamplemRule to Rule--><path codeLine="29" d="M107,291.15 C107,340.63 107,442.53 107,490.69 " fill="none" id="CrossamplemRule-backto-Rule" style="stroke:#A80036;stroke-width:1.0;"/><polygon fill="#FFFFFF" points="107,278.13,103,284.13,107,290.13,111,284.13,107,278.13" style="stroke:#A80036;stroke-width:1.0;"/><text fill="#000000" font-family="sans-serif" font-size="13" lengthAdjust="spacing" textLength="7" x="99.1906" y="480.0793">1</text><!--MD5=[4f3739f01e0709e6dc740915c6cc3375]
reverse link PageItem to ItemType--><path codeLine="30" d="M250.57,443.1 C260.16,464.31 270.53,487.23 277.14,501.83 " fill="none" id="PageItem-backto-ItemType" style="stroke:#A80036;stroke-width:1.0;"/><polygon fill="#FFFFFF" points="245.19,431.21,244.0152,438.3248,250.1308,442.1456,251.3056,435.0309,245.19,431.21" style="stroke:#A80036;stroke-width:1.0;"/><text fill="#000000" font-family="sans-serif" font-size="13" lengthAdjust="spacing" textLength="7" x="266.5787" y="491.0771">1</text><!--MD5=[e8e56d4f1fe5083ba23d33820741a748]
@startuml
interface ItemType {
}
class PageItem {
    +wording: string
    +varName: string
    +section: string
}
interface Rule {
    +execute(...args: unknown[]): string[]
}
class CrossamplemRule {
}
class Page {
    +name: string
}
class PageSet {
    +type: string
}
class Survey {
    +name: string
}
PageItem o- - "n" Rule
Page *- - "n" PageItem
PageSet o- -> "n" Page
Survey *- - "n" PageSet
Survey *- - "n" Page
Survey *- - "n" CrossamplemRule
CrossamplemRule o- - "n" PageItem
CrossamplemRule o- - "1" Rule
PageItem o- - "1" ItemType
hide methods
hide ItemType fields
hide CrossamplemRule fields
hide Rule fields
show Rule methods
@enduml

PlantUML version 1.2021.8(Sat Jun 26 10:20:59 CEST 2021)
(GPL source distribution)
Java Runtime: OpenJDK Runtime Environment
JVM: OpenJDK 64-Bit Server VM
Default Encoding: Cp1252
Language: en
Country: US
--></g></svg>