<?xml version="1.0" encoding="UTF-8" standalone="no"?><svg xmlns="http://www.w3.org/2000/svg" xmlns:xlink="http://www.w3.org/1999/xlink" contentScriptType="application/ecmascript" contentStyleType="text/css" height="358px" preserveAspectRatio="none" style="width:458px;height:358px;background:#FFFFFF;" version="1.1" viewBox="0 0 458 358" width="458px" zoomAndPan="magnify"><defs><filter height="300%" id="f1lr7aiotz8if1" width="300%" x="-1" y="-1"><feGaussianBlur result="blurOut" stdDeviation="2.0"/><feColorMatrix in="blurOut" result="blurOut2" type="matrix" values="0 0 0 0 0 0 0 0 0 0 0 0 0 0 0 0 0 0 .4 0"/><feOffset dx="4.0" dy="4.0" in="blurOut2" result="blurOut3"/><feBlend in="SourceGraphic" in2="blurOut3" mode="normal"/></filter></defs><g><!--MD5=[e73eb7d63630c46bab254d82198b6872]
class SurveyTree--><rect codeLine="1" fill="#FEFECE" filter="url(#f1lr7aiotz8if1)" height="67.6719" id="SurveyTree" style="stroke:#A80036;stroke-width:1.5;" width="127" x="166.5" y="7"/><ellipse cx="185.1" cy="23" fill="#B4A7E5" rx="11" ry="11" style="stroke:#A80036;stroke-width:1.0;"/><path d="M186.0531,19.6406 L186.0531,26.2969 L187.7719,26.2969 Q188.3813,26.2969 188.6469,26.5313 Q188.9125,26.7656 188.9125,27.1563 Q188.9125,27.5313 188.6469,27.7656 Q188.3813,28 187.7719,28 L182.6313,28 Q182.0219,28 181.7563,27.7656 Q181.4906,27.5313 181.4906,27.1406 Q181.4906,26.7656 181.7563,26.5313 Q182.0219,26.2969 182.6313,26.2969 L184.35,26.2969 L184.35,19.6406 L182.6313,19.6406 Q182.0219,19.6406 181.7563,19.4063 Q181.4906,19.1719 181.4906,18.7813 Q181.4906,18.4063 181.7563,18.1719 Q182.0219,17.9375 182.6313,17.9375 L187.7719,17.9375 Q188.3813,17.9375 188.6469,18.1719 Q188.9125,18.4063 188.9125,18.7813 Q188.9125,19.1719 188.6469,19.4063 Q188.3813,19.6406 187.7719,19.6406 L186.0531,19.6406 Z " fill="#000000"/><text fill="#000000" font-family="sans-serif" font-size="12" font-style="italic" lengthAdjust="spacing" textLength="84" x="199.9" y="27.9102">DNode&lt;Survey&gt;</text><line style="stroke:#A80036;stroke-width:1.5;" x1="167.5" x2="292.5" y1="39" y2="39"/><ellipse cx="177.5" cy="50" rx="3" ry="3" style="stroke:#038048;stroke-width:1.0;fill:none;"/><text fill="#000000" font-family="sans-serif" font-size="11" lengthAdjust="spacing" textLength="59" x="186.5" y="54.4189">name: string</text><ellipse cx="177.5" cy="63.8359" rx="3" ry="3" style="stroke:#038048;stroke-width:1.0;fill:none;"/><text fill="#000000" font-family="sans-serif" font-size="11" lengthAdjust="spacing" textLength="101" x="186.5" y="68.2549">config: SurveyOptions</text><!--MD5=[b98221fcb005e0fb3458523ebe7341cd]
class PageNode--><rect codeLine="6" fill="#FEFECE" filter="url(#f1lr7aiotz8if1)" height="53.8359" id="PageNode" style="stroke:#A80036;stroke-width:1.5;" width="200" x="14" y="142"/><ellipse cx="67.25" cy="158" fill="#B4A7E5" rx="11" ry="11" style="stroke:#A80036;stroke-width:1.0;"/><path d="M68.2031,154.6406 L68.2031,161.2969 L69.9219,161.2969 Q70.5313,161.2969 70.7969,161.5313 Q71.0625,161.7656 71.0625,162.1563 Q71.0625,162.5313 70.7969,162.7656 Q70.5313,163 69.9219,163 L64.7813,163 Q64.1719,163 63.9063,162.7656 Q63.6406,162.5313 63.6406,162.1406 Q63.6406,161.7656 63.9063,161.5313 Q64.1719,161.2969 64.7813,161.2969 L66.5,161.2969 L66.5,154.6406 L64.7813,154.6406 Q64.1719,154.6406 63.9063,154.4063 Q63.6406,154.1719 63.6406,153.7813 Q63.6406,153.4063 63.9063,153.1719 Q64.1719,152.9375 64.7813,152.9375 L69.9219,152.9375 Q70.5313,152.9375 70.7969,153.1719 Q71.0625,153.4063 71.0625,153.7813 Q71.0625,154.1719 70.7969,154.4063 Q70.5313,154.6406 69.9219,154.6406 L68.2031,154.6406 Z " fill="#000000"/><text fill="#000000" font-family="sans-serif" font-size="12" font-style="italic" lengthAdjust="spacing" textLength="82" x="87.75" y="162.9102">DNode&lt;Page&gt;</text><line style="stroke:#A80036;stroke-width:1.5;" x1="15" x2="213" y1="174" y2="174"/><ellipse cx="25" cy="185" rx="3" ry="3" style="stroke:#038048;stroke-width:1.0;fill:none;"/><text fill="#000000" font-family="sans-serif" font-size="11" lengthAdjust="spacing" textLength="174" x="34" y="189.4189">name: string | Record&lt;string, string&gt;</text><!--MD5=[ea5629ad1402773af2c993d43de2afde]
class PageItemNode--><rect codeLine="10" fill="#FEFECE" filter="url(#f1lr7aiotz8if1)" height="81.5078" id="PageItemNode" style="stroke:#A80036;stroke-width:1.5;" width="214" x="7" y="263"/><ellipse cx="54.75" cy="279" fill="#B4A7E5" rx="11" ry="11" style="stroke:#A80036;stroke-width:1.0;"/><path d="M55.7031,275.6406 L55.7031,282.2969 L57.4219,282.2969 Q58.0313,282.2969 58.2969,282.5313 Q58.5625,282.7656 58.5625,283.1563 Q58.5625,283.5313 58.2969,283.7656 Q58.0313,284 57.4219,284 L52.2813,284 Q51.6719,284 51.4063,283.7656 Q51.1406,283.5313 51.1406,283.1406 Q51.1406,282.7656 51.4063,282.5313 Q51.6719,282.2969 52.2813,282.2969 L54,282.2969 L54,275.6406 L52.2813,275.6406 Q51.6719,275.6406 51.4063,275.4063 Q51.1406,275.1719 51.1406,274.7813 Q51.1406,274.4063 51.4063,274.1719 Q51.6719,273.9375 52.2813,273.9375 L57.4219,273.9375 Q58.0313,273.9375 58.2969,274.1719 Q58.5625,274.4063 58.5625,274.7813 Q58.5625,275.1719 58.2969,275.4063 Q58.0313,275.6406 57.4219,275.6406 L55.7031,275.6406 Z " fill="#000000"/><text fill="#000000" font-family="sans-serif" font-size="12" font-style="italic" lengthAdjust="spacing" textLength="107" x="75.25" y="283.9102">DNode&lt;PageItem&gt;</text><line style="stroke:#A80036;stroke-width:1.5;" x1="8" x2="220" y1="295" y2="295"/><ellipse cx="18" cy="306" rx="3" ry="3" style="stroke:#038048;stroke-width:1.0;fill:none;"/><text fill="#000000" font-family="sans-serif" font-size="11" lengthAdjust="spacing" textLength="188" x="27" y="310.4189">wording: string | Record&lt;string, string&gt;</text><ellipse cx="18" cy="319.8359" rx="3" ry="3" style="stroke:#038048;stroke-width:1.0;fill:none;"/><text fill="#000000" font-family="sans-serif" font-size="11" lengthAdjust="spacing" textLength="75" x="27" y="324.2549">varname: string</text><ellipse cx="18" cy="333.6719" rx="3" ry="3" style="stroke:#038048;stroke-width:1.0;fill:none;"/><text fill="#000000" font-family="sans-serif" font-size="11" lengthAdjust="spacing" textLength="94" x="27" y="338.0908">type: PageItemType</text><!--MD5=[3d4c454335ea570824ac0df0ad907d79]
class PageSetNode--><rect codeLine="16" fill="#FEFECE" filter="url(#f1lr7aiotz8if1)" height="67.6719" id="PageSetNode" style="stroke:#A80036;stroke-width:1.5;" width="195" x="249.5" y="135"/><ellipse cx="291.5" cy="151" fill="#B4A7E5" rx="11" ry="11" style="stroke:#A80036;stroke-width:1.0;"/><path d="M292.4531,147.6406 L292.4531,154.2969 L294.1719,154.2969 Q294.7813,154.2969 295.0469,154.5313 Q295.3125,154.7656 295.3125,155.1563 Q295.3125,155.5313 295.0469,155.7656 Q294.7813,156 294.1719,156 L289.0313,156 Q288.4219,156 288.1563,155.7656 Q287.8906,155.5313 287.8906,155.1406 Q287.8906,154.7656 288.1563,154.5313 Q288.4219,154.2969 289.0313,154.2969 L290.75,154.2969 L290.75,147.6406 L289.0313,147.6406 Q288.4219,147.6406 288.1563,147.4063 Q287.8906,147.1719 287.8906,146.7813 Q287.8906,146.4063 288.1563,146.1719 Q288.4219,145.9375 289.0313,145.9375 L294.1719,145.9375 Q294.7813,145.9375 295.0469,146.1719 Q295.3125,146.4063 295.3125,146.7813 Q295.3125,147.1719 295.0469,147.4063 Q294.7813,147.6406 294.1719,147.6406 L292.4531,147.6406 Z " fill="#000000"/><text fill="#000000" font-family="sans-serif" font-size="12" font-style="italic" lengthAdjust="spacing" textLength="100" x="311.5" y="155.9102">DNode&lt;PageSet&gt;</text><line style="stroke:#A80036;stroke-width:1.5;" x1="250.5" x2="443.5" y1="167" y2="167"/><ellipse cx="260.5" cy="178" rx="3" ry="3" style="stroke:#038048;stroke-width:1.0;fill:none;"/><text fill="#000000" font-family="sans-serif" font-size="11" lengthAdjust="spacing" textLength="169" x="269.5" y="182.4189">type: string | Record&lt;string, string&gt;</text><ellipse cx="260.5" cy="191.8359" rx="3" ry="3" style="stroke:#038048;stroke-width:1.0;fill:none;"/><text fill="#000000" font-family="sans-serif" font-size="11" lengthAdjust="spacing" textLength="71" x="269.5" y="196.2549">names: string[]</text><!--MD5=[ac4b8afbc29c65c10368b12bc1ca3bc1]
link SurveyTree to PageSetNode--><path codeLine="21" d="M268.9029,83.9059 C268.9029,83.9059 295.09,112.1 307.13,125.06 " fill="none" id="SurveyTree-PageSetNode" style="stroke:#A80036;stroke-width:1.0;"/><polygon fill="#A80036" points="316.06,134.68,312.8698,125.3621,312.6588,131.0151,307.0059,130.8041,316.06,134.68" style="stroke:#A80036;stroke-width:1.0;"/><line style="stroke:#A80036;stroke-width:1.0;" x1="312.6588" x2="307.215" y1="131.0151" y2="125.155"/><polygon fill="#A80036" points="260.74,75.11,261.8895,82.2289,268.9029,83.9059,267.7534,76.787,260.74,75.11" style="stroke:#A80036;stroke-width:1.0;"/><text fill="#000000" font-family="sans-serif" font-size="13" lengthAdjust="spacing" textLength="7" x="302.4949" y="124.1726">n</text><!--MD5=[b1c29c77dcb554910f1ae77be580fa8d]
link SurveyTree to PageNode--><path codeLine="22" d="M191.3916,83.9378 C191.3916,83.9378 160.64,117.34 147.06,132.09 " fill="none" id="SurveyTree-PageNode" style="stroke:#A80036;stroke-width:1.0;"/><polygon fill="#A80036" points="138.06,141.87,147.0991,137.9592,141.4471,138.192,141.2143,132.5399,138.06,141.87" style="stroke:#A80036;stroke-width:1.0;"/><line style="stroke:#A80036;stroke-width:1.0;" x1="141.4471" x2="146.86" y1="138.192" y2="132.305"/><polygon fill="#A80036" points="199.52,75.11,192.5132,76.8144,191.3916,83.9378,198.3984,82.2333,199.52,75.11" style="stroke:#A80036;stroke-width:1.0;"/><text fill="#000000" font-family="sans-serif" font-size="13" lengthAdjust="spacing" textLength="7" x="135.8145" y="131.3009">n</text><!--MD5=[e3e54593e42fdf78ef95c811f76f4b10]
link PageNode to PageItemNode--><path codeLine="23" d="M114,208.28 C114,208.28 114,236.27 114,249.75 " fill="none" id="PageNode-PageItemNode" style="stroke:#A80036;stroke-width:1.0;"/><polygon fill="#A80036" points="114,262.89,118,253.89,114,257.89,110,253.89,114,262.89" style="stroke:#A80036;stroke-width:1.0;"/><line style="stroke:#A80036;stroke-width:1.0;" x1="114" x2="114" y1="257.89" y2="249.89"/><polygon fill="#A80036" points="114,196.28,110,202.28,114,208.28,118,202.28,114,196.28" style="stroke:#A80036;stroke-width:1.0;"/><text fill="#000000" font-family="sans-serif" font-size="13" lengthAdjust="spacing" textLength="7" x="106.3984" y="252.0168">n</text><!--MD5=[9c40275303e502a96c8b94afa6ad3720]
@startuml
interface "DNode<Survey> " as SurveyTree {
  +name: string
  +config: SurveyOptions
}

interface "DNode<Page> " as PageNode {
  +name: string | Record<string, string>
}

interface "DNode<PageItem> " as PageItemNode {
  +wording: string | Record<string, string>
  +varname: string
  +type: PageItemType
}

interface "DNode<PageSet> " as PageSetNode {
  +type: string | Record<string, string>
  +names: string[]
}

SurveyTree *- -> "n" PageSetNode
SurveyTree *- -> "n" PageNode
PageNode *- -> "n" PageItemNode

hide methods

@enduml

PlantUML version 1.2021.8(Sat Jun 26 10:20:59 CEST 2021)
(GPL source distribution)
Java Runtime: OpenJDK Runtime Environment
JVM: OpenJDK 64-Bit Server VM
Default Encoding: Cp1252
Language: en
Country: US
--></g></svg>