<?xml version="1.0" encoding="UTF-8" standalone="no"?><svg xmlns="http://www.w3.org/2000/svg" xmlns:xlink="http://www.w3.org/1999/xlink" contentStyleType="text/css" height="595px" preserveAspectRatio="none" style="width:324px;height:595px;background:#FFFFFF;" version="1.1" viewBox="0 0 324 595" width="324px" zoomAndPan="magnify"><defs/><g><!--MD5=[7b90a0373e11a97a69971d8f6b9d346b]
class PageItem--><g id="elem_PageItem"><rect codeLine="1" fill="#F1F1F1" height="110.4375" id="PageItem" rx="2.5" ry="2.5" style="stroke:#181818;stroke-width:0.5;" width="155" x="122.5" y="361"/><ellipse cx="166.3" cy="377" fill="#ADD1B2" rx="11" ry="11" style="stroke:#181818;stroke-width:1.0;"/><path d="M169.0656,372.875 Q169.2219,372.6563 169.4094,372.5469 Q169.5969,372.4375 169.8156,372.4375 Q170.1906,372.4375 170.425,372.7031 Q170.6594,372.9531 170.6594,373.5625 L170.6594,375.0156 Q170.6594,375.625 170.425,375.8906 Q170.1906,376.1563 169.8156,376.1563 Q169.4719,376.1563 169.2688,375.9531 Q169.0656,375.7656 168.9563,375.25 Q168.9094,374.8906 168.7219,374.7031 Q168.3938,374.3281 167.7844,374.1094 Q167.175,373.8906 166.55,373.8906 Q165.7844,373.8906 165.1438,374.2188 Q164.5188,374.5469 164.0188,375.2969 Q163.5344,376.0469 163.5344,377.0781 L163.5344,378.1719 Q163.5344,379.4063 164.425,380.2344 Q165.3156,381.0469 166.9094,381.0469 Q167.8469,381.0469 168.5031,380.7969 Q168.8938,380.6406 169.3156,380.2031 Q169.5813,379.9375 169.7219,379.8594 Q169.8781,379.7813 170.0813,379.7813 Q170.4094,379.7813 170.6594,380.0469 Q170.925,380.2969 170.925,380.6406 Q170.925,380.9844 170.5813,381.3906 Q170.0813,381.9688 169.2844,382.2969 Q168.2063,382.75 166.9094,382.75 Q165.3938,382.75 164.1906,382.125 Q163.2063,381.625 162.5188,380.5625 Q161.8313,379.4844 161.8313,378.2031 L161.8313,377.0469 Q161.8313,375.7188 162.4406,374.5781 Q163.0656,373.4219 164.1594,372.8125 Q165.2531,372.1875 166.4875,372.1875 Q167.2219,372.1875 167.8625,372.3594 Q168.5188,372.5156 169.0656,372.875 Z " fill="#000000"/><text fill="#000000" font-family="sans-serif" font-size="14" lengthAdjust="spacing" textLength="59" x="186.7" y="382.7285">PageItem</text><line style="stroke:#181818;stroke-width:0.5;" x1="123.5" x2="276.5" y1="393" y2="393"/><ellipse cx="133.5" cy="404" fill="none" rx="3" ry="3" style="stroke:#038048;stroke-width:1.0;"/><text fill="#000000" font-family="sans-serif" font-size="14" lengthAdjust="spacing" textLength="92" x="142.5" y="411.5332">wording: string</text><ellipse cx="133.5" cy="421.6094" fill="none" rx="3" ry="3" style="stroke:#038048;stroke-width:1.0;"/><text fill="#000000" font-family="sans-serif" font-size="14" lengthAdjust="spacing" textLength="129" x="142.5" y="429.1426">variableName: string</text><ellipse cx="133.5" cy="439.2188" fill="none" rx="3" ry="3" style="stroke:#038048;stroke-width:1.0;"/><text fill="#000000" font-family="sans-serif" font-size="14" lengthAdjust="spacing" textLength="93" x="142.5" y="446.752">type: ItemType</text><ellipse cx="133.5" cy="456.8281" fill="none" rx="3" ry="3" style="stroke:#038048;stroke-width:1.0;"/><text fill="#000000" font-family="sans-serif" font-size="14" lengthAdjust="spacing" textLength="88" x="142.5" y="464.3613">section: string</text></g><!--MD5=[4cf87534c235239d37db4adfd136fff4]
class Rule--><g id="elem_Rule"><rect codeLine="7" fill="#F1F1F1" height="57.6094" id="Rule" rx="2.5" ry="2.5" style="stroke:#181818;stroke-width:0.5;" width="248" x="10" y="531"/><ellipse cx="115.25" cy="547" fill="#B4A7E5" rx="11" ry="11" style="stroke:#181818;stroke-width:1.0;"/><path d="M116.2031,543.6406 L116.2031,550.2969 L117.9219,550.2969 Q118.5313,550.2969 118.7969,550.5313 Q119.0625,550.7656 119.0625,551.1563 Q119.0625,551.5313 118.7969,551.7656 Q118.5313,552 117.9219,552 L112.7813,552 Q112.1719,552 111.9063,551.7656 Q111.6406,551.5313 111.6406,551.1406 Q111.6406,550.7656 111.9063,550.5313 Q112.1719,550.2969 112.7813,550.2969 L114.5,550.2969 L114.5,543.6406 L112.7813,543.6406 Q112.1719,543.6406 111.9063,543.4063 Q111.6406,543.1719 111.6406,542.7813 Q111.6406,542.4063 111.9063,542.1719 Q112.1719,541.9375 112.7813,541.9375 L117.9219,541.9375 Q118.5313,541.9375 118.7969,542.1719 Q119.0625,542.4063 119.0625,542.7813 Q119.0625,543.1719 118.7969,543.4063 Q118.5313,543.6406 117.9219,543.6406 L116.2031,543.6406 Z " fill="#000000"/><text fill="#000000" font-family="sans-serif" font-size="14" font-style="italic" lengthAdjust="spacing" textLength="29" x="135.75" y="552.7285">Rule</text><line style="stroke:#181818;stroke-width:0.5;" x1="11" x2="257" y1="563" y2="563"/><ellipse cx="21" cy="574" fill="#84BE84" rx="3" ry="3" style="stroke:#038048;stroke-width:1.0;"/><text fill="#000000" font-family="sans-serif" font-size="14" lengthAdjust="spacing" textLength="222" x="30" y="581.5332">execute(...args: unknown[]): string[]</text></g><!--MD5=[963c581970a8454b3a756a0cdf1eb396]
class CrossItemRule--><g id="elem_CrossItemRule"><rect codeLine="10" fill="#F1F1F1" height="32" id="CrossItemRule" rx="2.5" ry="2.5" style="stroke:#181818;stroke-width:0.5;" width="124" x="7" y="256"/><ellipse cx="22" cy="272" fill="#ADD1B2" rx="11" ry="11" style="stroke:#181818;stroke-width:1.0;"/><path d="M24.7656,267.875 Q24.9219,267.6563 25.1094,267.5469 Q25.2969,267.4375 25.5156,267.4375 Q25.8906,267.4375 26.125,267.7031 Q26.3594,267.9531 26.3594,268.5625 L26.3594,270.0156 Q26.3594,270.625 26.125,270.8906 Q25.8906,271.1563 25.5156,271.1563 Q25.1719,271.1563 24.9688,270.9531 Q24.7656,270.7656 24.6563,270.25 Q24.6094,269.8906 24.4219,269.7031 Q24.0938,269.3281 23.4844,269.1094 Q22.875,268.8906 22.25,268.8906 Q21.4844,268.8906 20.8438,269.2188 Q20.2188,269.5469 19.7188,270.2969 Q19.2344,271.0469 19.2344,272.0781 L19.2344,273.1719 Q19.2344,274.4063 20.125,275.2344 Q21.0156,276.0469 22.6094,276.0469 Q23.5469,276.0469 24.2031,275.7969 Q24.5938,275.6406 25.0156,275.2031 Q25.2813,274.9375 25.4219,274.8594 Q25.5781,274.7813 25.7813,274.7813 Q26.1094,274.7813 26.3594,275.0469 Q26.625,275.2969 26.625,275.6406 Q26.625,275.9844 26.2813,276.3906 Q25.7813,276.9688 24.9844,277.2969 Q23.9063,277.75 22.6094,277.75 Q21.0938,277.75 19.8906,277.125 Q18.9063,276.625 18.2188,275.5625 Q17.5313,274.4844 17.5313,273.2031 L17.5313,272.0469 Q17.5313,270.7188 18.1406,269.5781 Q18.7656,268.4219 19.8594,267.8125 Q20.9531,267.1875 22.1875,267.1875 Q22.9219,267.1875 23.5625,267.3594 Q24.2188,267.5156 24.7656,267.875 Z " fill="#000000"/><text fill="#000000" font-family="sans-serif" font-size="14" lengthAdjust="spacing" textLength="92" x="36" y="277.7285">CrossItemRule</text></g><!--MD5=[6a494c20d032ff54e1efa92c1369bc7b]
class Page--><g id="elem_Page"><rect codeLine="12" fill="#F1F1F1" height="57.6094" id="Page" rx="2.5" ry="2.5" style="stroke:#181818;stroke-width:0.5;" width="104" x="166" y="243"/><ellipse cx="198.55" cy="259" fill="#ADD1B2" rx="11" ry="11" style="stroke:#181818;stroke-width:1.0;"/><path d="M201.3156,254.875 Q201.4719,254.6563 201.6594,254.5469 Q201.8469,254.4375 202.0656,254.4375 Q202.4406,254.4375 202.675,254.7031 Q202.9094,254.9531 202.9094,255.5625 L202.9094,257.0156 Q202.9094,257.625 202.675,257.8906 Q202.4406,258.1563 202.0656,258.1563 Q201.7219,258.1563 201.5188,257.9531 Q201.3156,257.7656 201.2063,257.25 Q201.1594,256.8906 200.9719,256.7031 Q200.6438,256.3281 200.0344,256.1094 Q199.425,255.8906 198.8,255.8906 Q198.0344,255.8906 197.3938,256.2188 Q196.7688,256.5469 196.2688,257.2969 Q195.7844,258.0469 195.7844,259.0781 L195.7844,260.1719 Q195.7844,261.4063 196.675,262.2344 Q197.5656,263.0469 199.1594,263.0469 Q200.0969,263.0469 200.7531,262.7969 Q201.1438,262.6406 201.5656,262.2031 Q201.8313,261.9375 201.9719,261.8594 Q202.1281,261.7813 202.3313,261.7813 Q202.6594,261.7813 202.9094,262.0469 Q203.175,262.2969 203.175,262.6406 Q203.175,262.9844 202.8313,263.3906 Q202.3313,263.9688 201.5344,264.2969 Q200.4563,264.75 199.1594,264.75 Q197.6438,264.75 196.4406,264.125 Q195.4563,263.625 194.7688,262.5625 Q194.0813,261.4844 194.0813,260.2031 L194.0813,259.0469 Q194.0813,257.7188 194.6906,256.5781 Q195.3156,255.4219 196.4094,254.8125 Q197.5031,254.1875 198.7375,254.1875 Q199.4719,254.1875 200.1125,254.3594 Q200.7688,254.5156 201.3156,254.875 Z " fill="#000000"/><text fill="#000000" font-family="sans-serif" font-size="14" lengthAdjust="spacing" textLength="33" x="216.45" y="264.7285">Page</text><line style="stroke:#181818;stroke-width:0.5;" x1="167" x2="269" y1="275" y2="275"/><ellipse cx="177" cy="286" fill="none" rx="3" ry="3" style="stroke:#038048;stroke-width:1.0;"/><text fill="#000000" font-family="sans-serif" font-size="14" lengthAdjust="spacing" textLength="78" x="186" y="293.5332">name: string</text></g><!--MD5=[0d366b7c3d730f7a79955d1b0843cd3b]
class PageSet--><g id="elem_PageSet"><rect codeLine="15" fill="#F1F1F1" height="57.6094" id="PageSet" rx="2.5" ry="2.5" style="stroke:#181818;stroke-width:0.5;" width="96" x="193" y="125"/><ellipse cx="212.5" cy="141" fill="#ADD1B2" rx="11" ry="11" style="stroke:#181818;stroke-width:1.0;"/><path d="M215.2656,136.875 Q215.4219,136.6563 215.6094,136.5469 Q215.7969,136.4375 216.0156,136.4375 Q216.3906,136.4375 216.625,136.7031 Q216.8594,136.9531 216.8594,137.5625 L216.8594,139.0156 Q216.8594,139.625 216.625,139.8906 Q216.3906,140.1563 216.0156,140.1563 Q215.6719,140.1563 215.4688,139.9531 Q215.2656,139.7656 215.1563,139.25 Q215.1094,138.8906 214.9219,138.7031 Q214.5938,138.3281 213.9844,138.1094 Q213.375,137.8906 212.75,137.8906 Q211.9844,137.8906 211.3438,138.2188 Q210.7188,138.5469 210.2188,139.2969 Q209.7344,140.0469 209.7344,141.0781 L209.7344,142.1719 Q209.7344,143.4063 210.625,144.2344 Q211.5156,145.0469 213.1094,145.0469 Q214.0469,145.0469 214.7031,144.7969 Q215.0938,144.6406 215.5156,144.2031 Q215.7813,143.9375 215.9219,143.8594 Q216.0781,143.7813 216.2813,143.7813 Q216.6094,143.7813 216.8594,144.0469 Q217.125,144.2969 217.125,144.6406 Q217.125,144.9844 216.7813,145.3906 Q216.2813,145.9688 215.4844,146.2969 Q214.4063,146.75 213.1094,146.75 Q211.5938,146.75 210.3906,146.125 Q209.4063,145.625 208.7188,144.5625 Q208.0313,143.4844 208.0313,142.2031 L208.0313,141.0469 Q208.0313,139.7188 208.6406,138.5781 Q209.2656,137.4219 210.3594,136.8125 Q211.4531,136.1875 212.6875,136.1875 Q213.4219,136.1875 214.0625,136.3594 Q214.7188,136.5156 215.2656,136.875 Z " fill="#000000"/><text fill="#000000" font-family="sans-serif" font-size="14" lengthAdjust="spacing" textLength="54" x="227.5" y="146.7285">PageSet</text><line style="stroke:#181818;stroke-width:0.5;" x1="194" x2="288" y1="157" y2="157"/><ellipse cx="204" cy="168" fill="none" rx="3" ry="3" style="stroke:#038048;stroke-width:1.0;"/><text fill="#000000" font-family="sans-serif" font-size="14" lengthAdjust="spacing" textLength="70" x="213" y="175.5332">type: string</text></g><!--MD5=[3145b4be7c5005b24cda6f18a1d594b0]
class Survey--><g id="elem_Survey"><rect codeLine="18" fill="#F1F1F1" height="57.6094" id="Survey" rx="2.5" ry="2.5" style="stroke:#181818;stroke-width:0.5;" width="104" x="88" y="7"/><ellipse cx="115.6" cy="23" fill="#ADD1B2" rx="11" ry="11" style="stroke:#181818;stroke-width:1.0;"/><path d="M118.3656,18.875 Q118.5219,18.6563 118.7094,18.5469 Q118.8969,18.4375 119.1156,18.4375 Q119.4906,18.4375 119.725,18.7031 Q119.9594,18.9531 119.9594,19.5625 L119.9594,21.0156 Q119.9594,21.625 119.725,21.8906 Q119.4906,22.1563 119.1156,22.1563 Q118.7719,22.1563 118.5688,21.9531 Q118.3656,21.7656 118.2563,21.25 Q118.2094,20.8906 118.0219,20.7031 Q117.6938,20.3281 117.0844,20.1094 Q116.475,19.8906 115.85,19.8906 Q115.0844,19.8906 114.4438,20.2188 Q113.8188,20.5469 113.3188,21.2969 Q112.8344,22.0469 112.8344,23.0781 L112.8344,24.1719 Q112.8344,25.4063 113.725,26.2344 Q114.6156,27.0469 116.2094,27.0469 Q117.1469,27.0469 117.8031,26.7969 Q118.1938,26.6406 118.6156,26.2031 Q118.8813,25.9375 119.0219,25.8594 Q119.1781,25.7813 119.3813,25.7813 Q119.7094,25.7813 119.9594,26.0469 Q120.225,26.2969 120.225,26.6406 Q120.225,26.9844 119.8813,27.3906 Q119.3813,27.9688 118.5844,28.2969 Q117.5063,28.75 116.2094,28.75 Q114.6938,28.75 113.4906,28.125 Q112.5063,27.625 111.8188,26.5625 Q111.1313,25.4844 111.1313,24.2031 L111.1313,23.0469 Q111.1313,21.7188 111.7406,20.5781 Q112.3656,19.4219 113.4594,18.8125 Q114.5531,18.1875 115.7875,18.1875 Q116.5219,18.1875 117.1625,18.3594 Q117.8188,18.5156 118.3656,18.875 Z " fill="#000000"/><text fill="#000000" font-family="sans-serif" font-size="14" lengthAdjust="spacing" textLength="44" x="132.4" y="28.7285">Survey</text><line style="stroke:#181818;stroke-width:0.5;" x1="89" x2="191" y1="39" y2="39"/><ellipse cx="99" cy="50" fill="none" rx="3" ry="3" style="stroke:#038048;stroke-width:1.0;"/><text fill="#000000" font-family="sans-serif" font-size="14" lengthAdjust="spacing" textLength="78" x="108" y="57.5332">name: string</text></g><!--MD5=[d70ec2599807b838f67ad031716e5dfb]
class ItemType--><g id="elem_ItemType"><rect fill="#F1F1F1" height="32" id="ItemType" rx="2.5" ry="2.5" style="stroke:#181818;stroke-width:0.5;" width="90" x="227" y="20"/><ellipse cx="242" cy="36" fill="#ADD1B2" rx="11" ry="11" style="stroke:#181818;stroke-width:1.0;"/><path d="M244.7656,31.875 Q244.9219,31.6563 245.1094,31.5469 Q245.2969,31.4375 245.5156,31.4375 Q245.8906,31.4375 246.125,31.7031 Q246.3594,31.9531 246.3594,32.5625 L246.3594,34.0156 Q246.3594,34.625 246.125,34.8906 Q245.8906,35.1563 245.5156,35.1563 Q245.1719,35.1563 244.9688,34.9531 Q244.7656,34.7656 244.6563,34.25 Q244.6094,33.8906 244.4219,33.7031 Q244.0938,33.3281 243.4844,33.1094 Q242.875,32.8906 242.25,32.8906 Q241.4844,32.8906 240.8438,33.2188 Q240.2188,33.5469 239.7188,34.2969 Q239.2344,35.0469 239.2344,36.0781 L239.2344,37.1719 Q239.2344,38.4063 240.125,39.2344 Q241.0156,40.0469 242.6094,40.0469 Q243.5469,40.0469 244.2031,39.7969 Q244.5938,39.6406 245.0156,39.2031 Q245.2813,38.9375 245.4219,38.8594 Q245.5781,38.7813 245.7813,38.7813 Q246.1094,38.7813 246.3594,39.0469 Q246.625,39.2969 246.625,39.6406 Q246.625,39.9844 246.2813,40.3906 Q245.7813,40.9688 244.9844,41.2969 Q243.9063,41.75 242.6094,41.75 Q241.0938,41.75 239.8906,41.125 Q238.9063,40.625 238.2188,39.5625 Q237.5313,38.4844 237.5313,37.2031 L237.5313,36.0469 Q237.5313,34.7188 238.1406,33.5781 Q238.7656,32.4219 239.8594,31.8125 Q240.9531,31.1875 242.1875,31.1875 Q242.9219,31.1875 243.5625,31.3594 Q244.2188,31.5156 244.7656,31.875 Z " fill="#000000"/><text fill="#000000" font-family="sans-serif" font-size="14" lengthAdjust="spacing" textLength="58" x="256" y="41.7285">ItemType</text></g><!--MD5=[07d0c343d08bc66b4ced90a63e7e6de4]
reverse link PageItem to Rule--><g id="link_PageItem_Rule"><path codeLine="21" d="M169.23,483.2 C161.42,500 153.45,517.15 147.07,530.88 " fill="none" id="PageItem-backto-Rule" style="stroke:#181818;stroke-width:1.0;"/><polygon fill="none" points="174.86,471.09,168.7034,474.8445,169.8012,481.9716,175.9578,478.217,174.86,471.09" style="stroke:#181818;stroke-width:1.0;"/><text fill="#000000" font-family="sans-serif" font-size="13" lengthAdjust="spacing" textLength="7" x="142.1634" y="520.3363">n</text></g><!--MD5=[556f67e0f69823e4755dec806f18e4c3]
reverse link Page to PageItem--><g id="link_Page_PageItem"><path codeLine="22" d="M212.77,314.27 C210.92,328.82 208.82,345.4 206.87,360.84 " fill="none" id="Page-backto-PageItem" style="stroke:#181818;stroke-width:1.0;"/><polygon fill="#181818" points="214.44,301.05,209.7192,306.5011,212.9353,312.9553,217.6561,307.5042,214.44,301.05" style="stroke:#181818;stroke-width:1.0;"/><text fill="#000000" font-family="sans-serif" font-size="13" lengthAdjust="spacing" textLength="7" x="200.3018" y="350.2372">n</text></g><!--MD5=[b7bf904c4e99824c5990e5285ae3ac25]
reverse link Page to Page--><g id="link_Page_Page"><path codeLine="23" d="M283.34,250.87 C296.01,253.34 305,260.39 305,272 C305,287.33 289.35,294.69 270.24,294.09 " fill="none" id="Page-backto-Page" style="stroke:#181818;stroke-width:1.0;"/><polygon fill="#181818" points="270.24,249.91,275.9339,254.3349,282.2084,250.7809,276.5145,246.356,270.24,249.91" style="stroke:#181818;stroke-width:1.0;"/><text fill="#000000" font-family="sans-serif" font-size="13" lengthAdjust="spacing" textLength="7" x="278.0784" y="293.6187">n</text></g><!--MD5=[64be817244a3aca6f616d9b0dd91d196]
link PageSet to Page--><g id="link_PageSet_Page"><path codeLine="24" d="M233.0969,194.851 C233.0969,194.851 228.32,218.95 226.14,229.94 " fill="none" id="PageSet-Page" style="stroke:#181818;stroke-width:1.0;"/><polygon fill="#181818" points="223.6,242.78,229.2735,234.7294,224.5721,237.8754,221.4262,233.174,223.6,242.78" style="stroke:#181818;stroke-width:1.0;"/><line style="stroke:#181818;stroke-width:1.0;" x1="224.5721" x2="226.125" y1="237.8754" y2="230.025"/><polygon fill="none" points="235.43,183.08,230.3398,188.1878,233.0969,194.851,238.1871,189.7432,235.43,183.08" style="stroke:#181818;stroke-width:1.0;"/><text fill="#000000" font-family="sans-serif" font-size="13" lengthAdjust="spacing" textLength="7" x="217.0594" y="232.2144">n</text></g><!--MD5=[d59cc3b586d20237b86ecf52b936c315]
reverse link Survey to PageSet--><g id="link_Survey_PageSet"><path codeLine="25" d="M173.34,75.3 C187.4,91.44 203.48,109.9 216.43,124.78 " fill="none" id="Survey-backto-PageSet" style="stroke:#181818;stroke-width:1.0;"/><polygon fill="#181818" points="164.45,65.08,165.3663,72.2326,172.3212,74.1378,171.4049,66.9852,164.45,65.08" style="stroke:#181818;stroke-width:1.0;"/><text fill="#000000" font-family="sans-serif" font-size="13" lengthAdjust="spacing" textLength="7" x="203.2897" y="114.2144">n</text></g><!--MD5=[e7bf6c4f7ef405aecc99daf9dee51b96]
reverse link Survey to Page--><g id="link_Survey_Page"><path codeLine="26" d="M147.33,78.03 C153.23,107.68 162.58,148.43 175,183 C182.42,203.64 193.28,225.83 202.23,242.76 " fill="none" id="Survey-backto-Page" style="stroke:#181818;stroke-width:1.0;"/><polygon fill="#181818" points="144.87,65.25,142.0828,71.9007,147.1499,77.0314,149.9371,70.3808,144.87,65.25" style="stroke:#181818;stroke-width:1.0;"/><text fill="#000000" font-family="sans-serif" font-size="13" lengthAdjust="spacing" textLength="7" x="191.0147" y="232.19">n</text></g><!--MD5=[09e60414574008bac9578d77b9b51015]
reverse link Survey to CrossItemRule--><g id="link_Survey_CrossItemRule"><path codeLine="27" d="M127.61,77.84 C111.54,130.79 84.31,220.54 73.56,255.97 " fill="none" id="Survey-backto-CrossItemRule" style="stroke:#181818;stroke-width:1.0;"/><polygon fill="#181818" points="131.44,65.23,125.8668,69.8059,127.9471,76.7104,133.5204,72.1345,131.44,65.23" style="stroke:#181818;stroke-width:1.0;"/><text fill="#000000" font-family="sans-serif" font-size="13" lengthAdjust="spacing" textLength="7" x="66.9244" y="245.2652">n</text></g><!--MD5=[4c7934265156eb13f26576dfe4cf53be]
reverse link CrossItemRule to PageItem--><g id="link_CrossItemRule_PageItem"><path codeLine="28" d="M92.16,298.11 C108.19,315.48 130.13,339.27 150.04,360.85 " fill="none" id="CrossItemRule-backto-PageItem" style="stroke:#181818;stroke-width:1.0;"/><polygon fill="none" points="83.02,288.2,84.1474,295.3224,91.1555,297.0212,90.0282,289.8987,83.02,288.2" style="stroke:#181818;stroke-width:1.0;"/><text fill="#000000" font-family="sans-serif" font-size="13" lengthAdjust="spacing" textLength="7" x="136.1904" y="350.2485">n</text></g><!--MD5=[286293b95ebbb9dc16fda3d3bfe81504]
reverse link CrossItemRule to Rule--><g id="link_CrossItemRule_Rule"><path codeLine="29" d="M72.86,301.16 C78.45,339.8 89.8,411.25 105,471 C110.16,491.27 117.55,513.64 123.59,530.76 " fill="none" id="CrossItemRule-backto-Rule" style="stroke:#181818;stroke-width:1.0;"/><polygon fill="none" points="71.01,288.06,67.8866,294.5596,72.6849,299.9425,75.8083,293.443,71.01,288.06" style="stroke:#181818;stroke-width:1.0;"/><text fill="#000000" font-family="sans-serif" font-size="13" lengthAdjust="spacing" textLength="7" x="113.5472" y="520.19">1</text></g><!--MD5=[81cac654d48abfd0bf7ea55746984e07]
@startuml
class PageItem {
    +wording: string
    +variableName: string
    +type: ItemType
    +section: string
}
interface Rule {
    +execute(...args: unknown[]): string[]
}
class CrossItemRule {
}
class Page {
    +name: string
}
class PageSet {
    +type: string
}
class Survey {
    +name: string
}
PageItem o- - "n" Rule
Page *- - "n" PageItem
Page *- - "n" Page
PageSet o- -> "n" Page
Survey *- - "n" PageSet
Survey *- - "n" Page
Survey *- - "n" CrossItemRule
CrossItemRule o- - "n" PageItem
CrossItemRule o- - "1" Rule
hide methods
hide ItemType fields
hide CrossItemRule fields
hide Rule fields
show Rule methods
@enduml

PlantUML version 1.2022.5(Sat Apr 30 12:55:52 CEST 2022)
(GPL source distribution)
Java Runtime: OpenJDK Runtime Environment
JVM: OpenJDK 64-Bit Server VM
Default Encoding: Cp1252
Language: en
Country: US
--></g></svg>